<svg xmlns="http://www.w3.org/2000/svg" width="353" height="353" viewBox="0 0 353 353">
  <g id="グループ_370" data-name="グループ 370" transform="translate(0.234)">
    <circle id="楕円形_59" data-name="楕円形 59" cx="176.5" cy="176.5" r="176.5" transform="translate(-0.234 0)" fill="#171c61"/>
    <g id="グループ_274" data-name="グループ 274" transform="translate(40.375 90.918)">
      <path id="パス_229" data-name="パス 229" d="M204.9,227.984c-8.295,0-13.468-.35-14.092-.438a4.772,4.772,0,0,1-4.459-5.167A4.858,4.858,0,0,1,191.614,218c.535,0,56.012,4.2,103.907-16.552,41.474-17.953,70.46-48.341,73.047-62.178.357-1.927.089-3.328-.624-4.028a3.345,3.345,0,0,0-1.784-1.051c-2.408.263-6.868,6.743-9.543,10.6-4.638,6.831-9.1,13.311-15.519,13.311-7.492,0-12.219-4.291-12.219-11.3v-1.314c-4.37,10.334-10.792,17.165-21.584,17.165-12.665,0-17.035-9.983-17.66-15.326V98.548c0-19.529-33.09-31.615-63.771-31.615-39.333,0-78.22,37.482-78.577,37.832a5.076,5.076,0,0,1-6.957,0,4.854,4.854,0,0,1,0-6.831c1.695-1.664,42.1-40.635,85.534-40.635,20.424,0,39.065,4.2,52.533,11.823,13.379,7.619,21.049,18.3,21.049,29.338v47.9c.267,1.751,1.605,6.481,7.849,6.481,11.506,0,15.43-16.289,20.514-43.087,1.159-6.043,2.319-12.261,3.746-18.391a4.926,4.926,0,0,1,9.722,1.226c-.892,16.727-2.5,49.48-2.5,53.946,0,1.226,0,1.664,2.23,1.664,1.695-.613,5.351-5.867,7.492-9.02,4.727-6.918,9.633-14.1,16.679-14.8,2.319-.263,5.976.175,9.633,3.678,2.23,2.1,4.638,6.043,3.478,12.611-3.389,18.478-35.765,50.706-78.666,69.359C263.769,225.62,225.15,227.984,204.9,227.984ZM340.83,148.378Z" transform="translate(-93.26 -57.3)" fill="#fff"/>
      <path id="パス_230" data-name="パス 230" d="M94.4,167.51a3.943,3.943,0,0,1-1.962-.446,4.878,4.878,0,0,1-2.587-6.422c.268-.535,5.708-13.111,18.908-26.668a110.861,110.861,0,0,1,65.733-32.644c62.076-8.384,84.552,8.295,103.818,27.56a4.919,4.919,0,1,1-6.957,6.957c-18.195-18.195-37.906-32.554-95.612-24.795-56.547,7.581-76.793,53.068-76.971,53.514A4.749,4.749,0,0,1,94.4,167.51Z" transform="translate(-87.914 -62.933)" fill="#fff"/>
      <path id="パス_231" data-name="パス 231" d="M120.882,191.6a4.913,4.913,0,0,1-3.211-1.16c-8.652-7.4-24.081-5.173-24.26-5.173a4.92,4.92,0,0,1-1.516-9.722c.8-.089,19.979-3.033,32.2,7.4a4.936,4.936,0,0,1,.535,6.957A5.08,5.08,0,0,1,120.882,191.6Z" transform="translate(-87.726 -72.135)" fill="#fff"/>
      <g id="グループ_163" data-name="グループ 163" transform="translate(50.903 71.644)">
        <path id="パス_232" data-name="パス 232" d="M149.795,199.39a4.936,4.936,0,0,1-2.5-9.187c8.741-5.084,19.8-15.073,20.96-18.373-.446-3.568-10.524-14.449-21.584-23.19a4.889,4.889,0,1,1,6.065-7.67c7.581,6.065,25.241,21.138,25.241,31.038,0,2.676-1.159,6.779-10.168,14.984a100.407,100.407,0,0,1-15.7,11.684A3.749,3.749,0,0,1,149.795,199.39Zm18.462-27.649Z" transform="translate(-144.801 -139.901)" fill="#fff"/>
        <path id="パス_233" data-name="パス 233" d="M161.65,192.91a5.08,5.08,0,0,1-3.746-1.695,4.942,4.942,0,0,1,.535-6.957c3.389-2.943,6.243-5.708,6.243-10.97,0-5.619-5.262-13.557-7.4-15.341a4.882,4.882,0,0,1,6.154-7.581c3.835,3.122,10.97,13.735,10.97,22.922,0,10.167-6.333,15.608-9.632,18.462A5.193,5.193,0,0,1,161.65,192.91Z" transform="translate(-145.953 -140.912)" fill="#fff"/>
      </g>
      <path id="パス_234" data-name="パス 234" d="M126.862,172.125a8.562,8.562,0,1,1,8.562-8.562A8.565,8.565,0,0,1,126.862,172.125Zm0-11.773a3.211,3.211,0,1,0,3.211,3.211A3.2,3.2,0,0,0,126.862,160.351Z" transform="translate(-91.031 -69.611)" fill="#fff"/>
      <g id="グループ_164" data-name="グループ 164" transform="translate(4.249 114.282)">
        <path id="パス_235" data-name="パス 235" d="M193.106,236.8c-3.478,0-57.082-.535-93.382-32.02-.178-.178-.446-.356-.714-.624-3.478-2.854-6.422-5.441-6.511-8.83a5.607,5.607,0,0,1,1.784-4.46c4.905-4.727,16.322.8,16.768.981a67.744,67.744,0,0,1,8.919,5.351,4.974,4.974,0,0,1,1.249,6.868,4.572,4.572,0,0,1-3.033,1.962c33,20.6,74.385,20.871,75.1,20.871h0a4.949,4.949,0,0,1,4.906,4.906,4.891,4.891,0,0,1-4.906,4.906C193.195,236.8,193.195,236.8,193.106,236.8Z" transform="translate(-92.491 -188.962)" fill="#fff"/>
        <ellipse id="楕円形_48" data-name="楕円形 48" cx="2.943" cy="7.938" rx="2.943" ry="7.938" transform="matrix(0.589, -0.808, 0.808, 0.589, 9.421, 10.267)" fill="#fff"/>
      </g>
    </g>
  </g>
</svg>
