<svg xmlns="http://www.w3.org/2000/svg" width="353" height="353" viewBox="0 0 353 353">
  <g id="グループ_372" data-name="グループ 372" transform="translate(0.338)">
    <circle id="楕円形_58" data-name="楕円形 58" cx="176.5" cy="176.5" r="176.5" transform="translate(-0.338 0)" fill="#171c61"/>
    <g id="_1222019_更新済み_" data-name="1222019 [更新済み]" transform="translate(75.657 76.142)">
      <path id="パス_322" data-name="パス 322" d="M344.626,172.756H143.42V102.513c0-21.125,9.825-42.817,26.955-59.513,19-18.521,45.157-28.72,73.649-28.72S298.668,24.479,317.67,43c17.131,16.7,26.956,38.389,26.956,59.513Zm-197.166-4.04H340.586v-66.2c0-50.362-49.93-84.193-96.563-84.193S147.46,52.151,147.46,102.513Z" transform="translate(-143.42 -14.28)" fill="#fff"/>
      <path id="パス_323" data-name="パス 323" d="M358.249,172.765H191.04V105.951c0-35.682,25.9-87.709,83.467-91.659,57.847,3.949,83.743,55.976,83.743,91.659Zm-163.169-4.04H354.209V105.951c0-34.116-24.728-83.857-79.7-87.628-54.7,3.771-79.426,53.512-79.426,87.628Z" transform="translate(-174.045 -14.288)" fill="#91a3b3"/>
      <path id="線_42" data-name="線 42" d="M-1.62,154.436H-5.66V0h4.04Z" transform="translate(104.244 2.02)" fill="#91a3b3"/>
      <g id="グループ_273" data-name="グループ 273" transform="translate(2.017 30.885)">
        <path id="線_43" data-name="線 43" d="M149.875-1.62H0V-5.66H149.875Z" transform="translate(23.647 5.66)" fill="#fff"/>
        <path id="線_44" data-name="線 44" d="M188.283-1.62H0V-5.66H188.283Z" transform="translate(4.443 36.549)" fill="#fff"/>
        <path id="線_45" data-name="線 45" d="M197.17-1.62H0V-5.66H197.17Z" transform="translate(0 67.438)" fill="#fff"/>
        <path id="線_46" data-name="線 46" d="M197.17-1.62H0V-5.66H197.17Z" transform="translate(0 98.326)" fill="#fff"/>
      </g>
      <path id="パス_324" data-name="パス 324" d="M283.156,320.85H269.087L225.72,367.9H246.5Z" transform="translate(-196.348 -211.439)" fill="#fff"/>
      <path id="パス_325" data-name="パス 325" d="M299.126,320.85h56.6l-21.58,45.025H277.55Z" transform="translate(-226.121 -211.438)" fill="#fff"/>
      <path id="パス_326" data-name="パス 326" d="M481.64,320.85h13.642L537.344,367.9H517.191Z" transform="translate(-365.516 -211.439)" fill="#fff"/>
      <path id="パス_327" data-name="パス 327" d="M488.507,371.07,449.4,320.85l-24.1,50.22Z" transform="translate(-328.697 -211.439)" fill="#fff"/>
      <rect id="長方形_171" data-name="長方形 171" width="16.999" height="33.173" transform="translate(92.102 167.063)" fill="#dcdddd"/>
      <path id="線_47" data-name="線 47" d="M-1.62,10.607H-5.66V0h4.04Z" transform="translate(104.244 156.456)" fill="#7c91a3"/>
      <rect id="長方形_172" data-name="長方形 172" width="16.999" height="33.173" transform="translate(182.184 167.063)" fill="#fff"/>
      <path id="線_48" data-name="線 48" d="M-1.62,10.607H-5.66V0h4.04Z" transform="translate(194.326 156.456)" fill="#fff"/>
      <rect id="長方形_173" data-name="長方形 173" width="16.999" height="33.173" transform="translate(173.687 167.063)" fill="#fff"/>
      <path id="線_49" data-name="線 49" d="M-1.62,10.607H-5.66V0h4.04Z" transform="translate(185.825 156.456)" fill="#fff"/>
      <rect id="長方形_174" data-name="長方形 174" width="16.999" height="33.173" transform="translate(2.02 167.063)" fill="#fff"/>
      <path id="線_50" data-name="線 50" d="M-1.62,10.607H-5.66V0h4.04Z" transform="translate(14.158 156.456)" fill="#fff"/>
      <rect id="長方形_175" data-name="長方形 175" width="16.999" height="33.173" transform="translate(10.518 167.063)" fill="#fff"/>
      <path id="線_51" data-name="線 51" d="M-1.62,10.607H-5.66V0h4.04Z" transform="translate(22.659 156.456)" fill="#fff"/>
      <path id="パス_328" data-name="パス 328" d="M225.74,452.67v43.78H368.192V452.67Zm62.723,41.549H252.731V473.505h35.732Zm52.73,0H305.462V473.505h35.732Z" transform="translate(-196.361 -296.214)" fill="#fff"/>
      <path id="線_52" data-name="線 52" d="M-1.62,154.436H-5.66V0h4.04Z" transform="translate(104.244 2.02)" fill="#fff"/>
      <path id="線_53" data-name="線 53" d="M197.17-1.62H0V-5.66H197.17Z" transform="translate(2.017 129.211)" fill="#fff"/>
      <path id="線_54" data-name="線 54" d="M197.17-1.62H0V-5.66H197.17Z" transform="translate(2.017 160.097)" fill="#fff"/>
      <path id="パス_329" data-name="パス 329" d="M358.249,172.765H191.04V105.951c0-35.682,25.9-87.709,83.467-91.659,57.847,3.949,83.743,55.976,83.743,91.659Zm-163.169-4.04H354.209V105.951c0-34.116-24.728-83.857-79.7-87.628-54.7,3.771-79.426,53.512-79.426,87.628Z" transform="translate(-174.045 -14.288)" fill="#fff"/>
    </g>
  </g>
</svg>
