<svg xmlns="http://www.w3.org/2000/svg" width="352" height="353" viewBox="0 0 352 353">
  <g id="グループ_371" data-name="グループ 371" transform="translate(-0.26)">
    <ellipse id="楕円形_87" data-name="楕円形 87" cx="176" cy="176.5" rx="176" ry="176.5" transform="translate(0.26 0)" fill="#171c61"/>
    <g id="car" transform="translate(35.371 118.866)">
      <path id="パス_444" data-name="パス 444" d="M517.5,313.4c.259.414.466.829.673,1.243A7.04,7.04,0,0,0,517.5,313.4Z" transform="translate(-262.788 -230.848)" fill="none"/>
      <path id="パス_445" data-name="パス 445" d="M520,318.3a13.364,13.364,0,0,1,.725,2.33A10.047,10.047,0,0,0,520,318.3Z" transform="translate(-263.993 -233.211)" fill="none"/>
      <path id="パス_446" data-name="パス 446" d="M131.784,359.2c-.311.155-.622.362-.984.518A3.585,3.585,0,0,0,131.784,359.2Z" transform="translate(-76.321 -252.932)" fill="none"/>
      <path id="パス_447" data-name="パス 447" d="M522.107,330.6a12.049,12.049,0,0,1-.207,1.916A8.048,8.048,0,0,0,522.107,330.6Z" transform="translate(-264.91 -239.142)" fill="none"/>
      <path id="パス_448" data-name="パス 448" d="M125.746,361.266l1.243-.466a13.675,13.675,0,0,1-2.589.777A5.15,5.15,0,0,0,125.746,361.266Z" transform="translate(-73.235 -253.704)" fill="none"/>
      <path id="パス_449" data-name="パス 449" d="M52.68,253.882c-5.282.414-10.356,6.265-11.392,11.236-.725,3.417,1.968,4.194,4.608,3a18.378,18.378,0,0,0,7.042-5.851c.362-.57.88-1.346,1.346-2.175a9.183,9.183,0,0,0,1.346-3.469C55.787,254.5,54.7,253.727,52.68,253.882Z" transform="translate(-33.101 -202.139)" fill="none"/>
      <path id="パス_450" data-name="パス 450" d="M521.907,324.824c-.052-.259-.156-.518-.207-.724a14.9,14.9,0,0,1,.311,3.055A11.685,11.685,0,0,0,521.907,324.824Z" transform="translate(-264.813 -236.007)" fill="none"/>
      <path id="パス_451" data-name="パス 451" d="M537.517,254.383c-1.968-1.709-4.712-4.557-7.56-4.3-.518,2.848,3.469,5.437,5.178,7.042.725.673,6.887,8.129,7.974,5.023C543.99,259.716,538.967,255.625,537.517,254.383Z" transform="translate(-268.772 -200.309)" fill="none"/>
      <path id="パス_452" data-name="パス 452" d="M122.03,362.4a11.5,11.5,0,0,1-2.33.207A11.841,11.841,0,0,0,122.03,362.4Z" transform="translate(-70.969 -254.476)" fill="none"/>
      <path id="パス_453" data-name="パス 453" d="M414.857,200.813S388.294,174.146,365.2,172.8l.57,30.4,46.861.052C412.579,203.247,416.2,203.661,414.857,200.813Z" transform="translate(-189.349 -163.05)" fill="none"/>
      <path id="パス_454" data-name="パス 454" d="M261.639,183.1c-.052-2.33-.052-4.66-.1-6.99a53.615,53.615,0,0,0-.414-5.8,51.931,51.931,0,0,0-8.544-.414c-3.625,0-7.249.311-10.874.518-3.728.207-7.508.518-11.236.984-31.534,1.346-59.754,32.1-59.754,32.1-1.45,1.553,2.692,1.036,2.692,1.036l88.492-2.123s-.052-4.246-.052-4.5C261.742,192.992,261.691,188.021,261.639,183.1Z" transform="translate(-95.419 -161.651)" fill="none"/>
      <path id="パス_455" data-name="パス 455" d="M305.931,218.038c-.569-.932-1.605-1.243-2.227-2.123-.518-.725-.621-1.864-1.139-2.693a21.7,21.7,0,0,0-5.23-4.971,32.559,32.559,0,0,0-5.282-3.936c-2.278-1.139-3.107-2.434-4.764-4.5a29.2,29.2,0,0,0-4.608-4.5c-4.453-3.625-9.01-7.094-13.463-10.615a162.553,162.553,0,0,0-14.5-10.615c-10.2-6.317-22.058-10.926-33.45-14.447a138.5,138.5,0,0,0-21.023-4.66c-11.858-1.709-23.974-.88-35.78-.052a130.676,130.676,0,0,0-14.861,1.761c-17.294,3-32.155,12.375-46.654,21.748-2.848,1.812-5.7,3.625-8.44,5.592-.725.518-1.45,1.243-2.175,1.709-1.864,1.087-3.159.362-4.816.207a8.759,8.759,0,0,0-1.191-.052,24.609,24.609,0,0,0-2.589.777c-16.414,3.987-35.78,7.871-46.395,22.524,0,0-6.421,6.576-8.026,11.184a4.05,4.05,0,0,0-3.417,4.3l-.311,5.592c-.1,2.019,1.139,4.453,2.278,6.058,1.294,1.812,1.553,1.916,1.139,4.039-.725,4.246.88,4.4,3.987,6.731,0,0,6.369,4.764,13.2,4.5,0,0,3.573.673,5.178-1.139-.777.828,2.382,6.369,2.8,7.042,3.417,5.8,10.563,9.372,17.087,10.719a29.657,29.657,0,0,0,19.728-3.055c7.767-4.194,13.618-11.961,13.2-21.126.466,2.9-.88,6.887.88,9.527,1.243,1.864,3.676,1.243,5.7,1.191,8.958-.052,17.864-.363,26.822-.311,10.511.052,21.074.259,31.586.156,11.236-.156,22.524-.259,33.761-.363,6.783-.052,13.515-.155,20.3-.207,2.537-.052,5.126-.052,7.663-.1,1.5,0,3.935.673,5.333-.052,1.5-.828.725-1.968.725-3.521a26.013,26.013,0,0,1,.725-5.955c.984,7.2,4.35,17.968,15.275,21.489,9.113,2.952,20.142,2.123,28.117-3.573,4.557-3.262,7.146-7.767,9.32-12.686a23.724,23.724,0,0,0,.725-2.744,5.162,5.162,0,0,1,.777-1.4,3.932,3.932,0,0,1,.311,1.346c0,1.605-.828,3.21,1.5,2.744,1.605-.311,3.21-2.382,4.4-3.417,4.5-3.883,8.388-9.062,8.854-15.223C307.174,226.944,308.158,221.818,305.931,218.038Zm-259.107-6.11c-.466.828-.984,1.553-1.346,2.175a17.93,17.93,0,0,1-7.042,5.851c-2.693,1.191-5.333.414-4.608-3,1.036-4.971,6.11-10.822,11.392-11.236,2.019-.155,3.107.621,3,2.744A10.36,10.36,0,0,1,46.824,211.928Zm34.227,48.311a5.907,5.907,0,0,1-.984.518,3.589,3.589,0,0,1-.673.259,12.125,12.125,0,0,1-1.243.466c-.414.1-.88.207-1.294.311-.052,0-.1.052-.155.052a11.823,11.823,0,0,1-2.33.207c-.311,0-.621.1-.984.1a16.8,16.8,0,1,1,7.663-1.916Zm22.473-63.379s-4.091.57-2.693-1.036c0,0,28.22-30.757,59.754-32.1,3.728-.466,7.508-.777,11.236-.984,3.625-.207,7.249-.57,10.874-.518a58.323,58.323,0,0,1,8.544.414c.207,1.968.362,3.832.414,5.8.052,2.33.052,4.66.1,6.99.052,4.919.1,9.89.207,14.809,0,.259.052,4.5.052,4.5Zm145.295-2.693-46.861-.052-.57-30.395c23.042,1.346,49.657,28.013,49.657,28.013C252.443,194.582,248.818,194.168,248.818,194.168Zm34.019,51.055v.207a12.035,12.035,0,0,1-.207,1.916,16.691,16.691,0,1,1-2.33-10.77c.259.414.466.829.673,1.243.207.466.466.88.621,1.347a20.105,20.105,0,0,1,.725,2.33l.155.621c.052.259.155.518.207.725a11.714,11.714,0,0,1,.1,2.33C282.786,245.119,282.838,245.171,282.838,245.223Zm17.139-29.463c-1.087,3.107-7.3-4.35-7.974-5.023-1.709-1.605-5.748-4.194-5.178-7.042,2.848-.207,5.592,2.641,7.56,4.3C295.783,209.287,300.805,213.378,299.977,215.76Z" transform="translate(-25.588 -153.971)" fill="#fff"/>
      <path id="パス_456" data-name="パス 456" d="M124.355,362.3c-.052,0-.1.052-.155.052A.19.19,0,0,0,124.355,362.3Z" transform="translate(-73.139 -254.427)"/>
      <path id="パス_457" data-name="パス 457" d="M130.173,360.3c-.207.1-.466.155-.673.259C129.707,360.455,129.966,360.4,130.173,360.3Z" transform="translate(-75.694 -253.463)"/>
      <path id="パス_458" data-name="パス 458" d="M521.5,322.9l.155.621A3.612,3.612,0,0,1,521.5,322.9Z" transform="translate(-264.717 -235.429)"/>
      <path id="パス_459" data-name="パス 459" d="M522.379,330.1v.208C522.327,330.259,522.379,330.155,522.379,330.1Z" transform="translate(-265.129 -238.852)"/>
      <path id="パス_460" data-name="パス 460" d="M518.8,315.7c.207.466.466.88.622,1.346C519.266,316.58,519.007,316.166,518.8,315.7Z" transform="translate(-263.414 -231.957)"/>
    </g>
  </g>
</svg>
