<svg xmlns="http://www.w3.org/2000/svg" width="52" height="52" viewBox="0 0 52 52">
  <g id="グループ_369" data-name="グループ 369" transform="translate(-647 -39)">
    <circle id="楕円形_60" data-name="楕円形 60" cx="26" cy="26" r="26" transform="translate(647 39)" fill="#171c61"/>
    <g id="常設展示" transform="translate(571.382 -39.709)">
      <path id="パス_461" data-name="パス 461" d="M116,168.627a3.98,3.98,0,0,1,.629-.684,7.833,7.833,0,0,1,1.351-.924,7.887,7.887,0,0,0-1.569.606l-.163.093c.047-.117.085-.241.132-.357a6.275,6.275,0,0,1,.4-.831,2.068,2.068,0,0,1,.6-.7,2.19,2.19,0,0,0-.753.583,6.9,6.9,0,0,0-.583.769c-.085.124-.163.256-.241.388.016-.342.031-.684.054-1.018a18.213,18.213,0,0,1,.287-2.431,19.29,19.29,0,0,0-.676,2.377q-.14.594-.256,1.188l-.016-.039c-.179-.4-.365-.808-.583-1.2a5.633,5.633,0,0,0-.761-1.1,2.371,2.371,0,0,0-1.087-.738,2.253,2.253,0,0,1,.932.854,5.761,5.761,0,0,1,.559,1.142c.132.342.233.691.334,1.049-.062-.047-.124-.109-.186-.148a3.921,3.921,0,0,0-1.639-.621,3.952,3.952,0,0,1,2.019,1.763c-.551.008-1.111,0-1.678-.008a14.126,14.126,0,0,1-.715-5.957,19.346,19.346,0,0,1,5.693-5.779c-3.084.7-4.847,2.221-5.507,4.357.132-.777.3-1.546.474-2.353.078-.357.155-.715.233-1.08,2.47-2.719,5.2-2.027,6.066-5.554-2.346,3.324-2.827.132-6.02,5.328.194-.963.373-1.981.489-3.084a22.325,22.325,0,0,1,2.92-2.1c-1.251.117-1.911.59-2.913,2,.047-.435.085-.885.109-1.359a.138.138,0,0,0-.031-.078c3.806-1.515,1.647-2.377,3.953-4.179-.885.179-2.858,2.2-3.93,3.922a9.631,9.631,0,0,0,.249-4c-.342.722-.909,1.522-.606,4.256-.008.023-.023.039-.023.062-.008.085-.016.155-.016.241-.87-2.641-3.829-5.686-4.722-5.965,2.594,2.757,1.647,4.093,4.691,6.4a27.281,27.281,0,0,1-.35,2.734c-.21-2.594-1.118-3.938-4.7-4.326,2,.715,2.913,3.076,4.59,4.893-.109.551-.217,1.1-.334,1.623a4.814,4.814,0,0,0-3.34-3.053,16.43,16.43,0,0,1,3.324,3.138l-.023.093c-.1.45-.194.9-.287,1.344-.4-3.231-3.487-1.118-4.311-3.48-.466,2.4,3.185,3.619,4.117,4.528-.1.606-.179,1.212-.225,1.841a5.16,5.16,0,0,0-3.7-2.6,14.676,14.676,0,0,1,3.674,2.936,14.546,14.546,0,0,0,.746,5.251c-6.983-.14-15.317-1.142-21.7-1.359a3.226,3.226,0,0,0-.179-1.841c0-.008.2-.062.2-.07.047-.225-.272-.4-.419-.606.039-.179.171-.3.085-.4.093-.583-.28-.854-.3-1.289s.458-.862.784-1.157c.419-.381,1.359-.132,1.445-.606a3,3,0,0,0-.008-1.755c-.272-.513-1.336-1.258-.474-2.074.326-.311-.621-.6-.249-1.041s.5-.4.513-.87.4-.761.039-1.219.684-1.134.645-1.592-1.336-1.025-1.08-1.546c.264-.536,1.406-1.08,1.289-1.53a3.773,3.773,0,0,0-1.2-1.748c-.474-.3-.909-.062-1.118-.458s.233-.66.225-1.243c0-.6-2.338-1.856-2.027-.73s.769,2.307,2.237,2.532c.722.109.14,1.328.388,2.051.241.707-.847,2.229-.256,2.7.971.777-.715,1.46.45,2.493.551.489-1.763,1.437-.986,2.346.489.567-.691,1.142.256,2.089.536.536-.94.482-.21,1.476.388.528-1.336.87-1.375,1.569s-1.266-1.282-.816-1.709c.839-.792-.2-1.235.225-1.709.684-.753-1.072-1.274-.583-1.685,1.033-.862-.5-1.452.357-2.1.52-.388-.412-1.67-.194-2.26s-.318-1.414.318-1.507c1.3-.186,1.717-3.961.769-3.247s-.7,1.041-.7,1.538c0,.482.388.668.2,1s-.5.124-.932.373a3.69,3.69,0,0,0-1.251,1.437c-.1.373,1.126.878,1.359,1.32.225.427-.963.893-1,1.274s.8.847.489,1.227.365.715.373,1.1-.148.388.186.753-.326.427-.039.684c.645.575-.054,1.344-.4,1.74-.225-.14-.427-.326-.326-.606.4-1.072-.466-1.3-.28-1.926.3-.994-1.491-1.274-1.243-1.841.528-1.2-.979-1.6-.513-2.517.163-.326-.186-.862-.513-1.39.163.451-.419,1.251-.326,1.662.1.427.878.924.753,1.414a1.665,1.665,0,0,0,.14,1.118c.14.427.373.365.761.691s-.272.8.039,1.018c.823.575.28,1.429.233,1.95a3.975,3.975,0,0,0,.5,1.631c.117.272.419.272.676.318a.144.144,0,0,1,.016.054c.07.4.6.45.963.769.163.14.645.21.854.4-.163.489-1.266.839-.28,1.522-.039.171.171.217.171.35,0,.016-.117.054-.117.07-.078.1-.039.241-.085.326a2.287,2.287,0,0,0-.2,1.212c-3.107-.031-5.608.194-7.045.9v3.884h38.836v-3.884A33.137,33.137,0,0,1,116,168.627Z" transform="translate(0 -53.513)" fill="#fff"/>
      <path id="パス_462" data-name="パス 462" d="M100.821,169.191c.955-.513,1.087-4.2.629-3.045s-1.429.614-1.266,1.165c.155.536.606.59.567,1a1.487,1.487,0,0,1-.3.909,3.574,3.574,0,0,0-.676,1.654c.039.427,1.157.544,1.53.948a2.155,2.155,0,0,1-.357-.878C100.914,170.209,100.355,169.44,100.821,169.191Z" transform="translate(-16.205 -72.742)" fill="#fff"/>
      <path id="パス_463" data-name="パス 463" d="M119.5,241.7c.031.047.054.093.085.148a.458.458,0,0,0-.047-.109C119.531,241.723,119.508,241.716,119.5,241.7Z" transform="translate(-34.403 -142.634)" fill="#fff"/>
      <path id="パス_464" data-name="パス 464" d="M301.085,373.413c.272-2.54-2.043-1.546-2.486-1.181-.264.1-.885-.148-1.2-.233.637-.559-.412-2.276-1.219-.458-1.072-.264-4.381-.241-4.016.163.21.233.264.971,2.819,1.491.163.023.645,1.732.808.085-.1,2.548,1.569.458,1.134-.1a5.949,5.949,0,0,1,1.282.272C299.609,375.829,301.007,374.151,301.085,373.413Z" transform="translate(-193.633 -261.64)" fill="#fff"/>
      <path id="パス_465" data-name="パス 465" d="M239,257.351a5.778,5.778,0,0,0,3.13-1.755c.225,0,.847-.047,1.631-.062-.482,0-.761.272-.536.2s.948.233,1.383.233c-.357.264.062.357-.373.808-.233.241,1.1-.357,1.227-.847.854-.016,2.6-.544,2.851-.979s-3-.823-3.752-.893c-1.049-1.546-2.136-.272-2.68-.07a.363.363,0,0,1,.28.3.742.742,0,0,1-.186,0c-2.338-1.553-3.13-1.2-3.122-.684s-.513.606-.451,1.352c.031.4-.435.1.249,1.017C238.88,256.279,238.336,257.164,239,257.351Z" transform="translate(-143.95 -153.205)" fill="#fff"/>
      <circle id="楕円形_88" data-name="楕円形 88" cx="0.388" cy="0.388" r="0.388" transform="translate(107.638 90.895)" fill="#fff"/>
      <circle id="楕円形_89" data-name="楕円形 89" cx="0.295" cy="0.295" r="0.295" transform="translate(107.568 92.791)" fill="#fff"/>
      <circle id="楕円形_90" data-name="楕円形 90" cx="0.295" cy="0.295" r="0.295" transform="translate(106.286 93.179)" fill="#fff"/>
      <circle id="楕円形_91" data-name="楕円形 91" cx="0.295" cy="0.295" r="0.295" transform="translate(105.921 95.113)" fill="#fff"/>
      <circle id="楕円形_92" data-name="楕円形 92" cx="0.295" cy="0.295" r="0.295" transform="translate(104.189 93.272)" fill="#fff"/>
      <path id="パス_466" data-name="パス 466" d="M374.694,156.9a.194.194,0,1,0,0,.388c.031,0,.047-.023.078-.031,0,.016-.016.023-.016.039a.194.194,0,1,0,.194-.194c-.031,0-.047.023-.078.031,0-.016.016-.023.016-.039A.192.192,0,0,0,374.694,156.9Z" transform="translate(-269.596 -64.42)" fill="#fff"/>
      <circle id="楕円形_93" data-name="楕円形 93" cx="0.194" cy="0.194" r="0.194" transform="translate(102.946 96.736)" fill="#fff"/>
      <circle id="楕円形_94" data-name="楕円形 94" cx="0.194" cy="0.194" r="0.194" transform="translate(106.97 91.478)" fill="#fff"/>
      <circle id="楕円形_95" data-name="楕円形 95" cx="0.194" cy="0.194" r="0.194" transform="translate(104.375 95.276)" fill="#fff"/>
      <circle id="楕円形_96" data-name="楕円形 96" cx="0.194" cy="0.194" r="0.194" transform="translate(105.478 96.713)" fill="#fff"/>
      <circle id="楕円形_97" data-name="楕円形 97" cx="0.194" cy="0.194" r="0.194" transform="translate(103.964 98.329)" fill="#fff"/>
      <circle id="楕円形_98" data-name="楕円形 98" cx="0.194" cy="0.194" r="0.194" transform="translate(104.298 97.311)" fill="#fff"/>
      <circle id="楕円形_99" data-name="楕円形 99" cx="0.194" cy="0.194" r="0.194" transform="translate(104.927 100.628)" fill="#fff"/>
      <circle id="楕円形_100" data-name="楕円形 100" cx="0.194" cy="0.194" r="0.194" transform="translate(105.478 97.863)" fill="#fff"/>
      <circle id="楕円形_101" data-name="楕円形 101" cx="0.093" cy="0.093" r="0.093" transform="translate(106.775 97.979)" fill="#fff"/>
      <circle id="楕円形_102" data-name="楕円形 102" cx="0.093" cy="0.093" r="0.093" transform="translate(105.673 93.567)" fill="#fff"/>
      <circle id="楕円形_103" data-name="楕円形 103" cx="0.093" cy="0.093" r="0.093" transform="translate(104.197 94.134)" fill="#fff"/>
      <circle id="楕円形_104" data-name="楕円形 104" cx="0.093" cy="0.093" r="0.093" transform="translate(106.139 94.624)" fill="#fff"/>
      <circle id="楕円形_105" data-name="楕円形 105" cx="0.093" cy="0.093" r="0.093" transform="translate(105.478 98.896)" fill="#fff"/>
      <circle id="楕円形_106" data-name="楕円形 106" cx="0.093" cy="0.093" r="0.093" transform="translate(106.597 100.868)" fill="#fff"/>
      <circle id="楕円形_107" data-name="楕円形 107" cx="0.093" cy="0.093" r="0.093" transform="translate(107.342 100.744)" fill="#fff"/>
      <circle id="楕円形_108" data-name="楕円形 108" cx="0.093" cy="0.093" r="0.093" transform="translate(106.247 101.132)" fill="#fff"/>
      <circle id="楕円形_109" data-name="楕円形 109" cx="0.093" cy="0.093" r="0.093" transform="translate(106.511 101.878)" fill="#fff"/>
      <circle id="楕円形_110" data-name="楕円形 110" cx="0.093" cy="0.093" r="0.093" transform="translate(106.193 102.391)" fill="#fff"/>
      <circle id="楕円形_111" data-name="楕円形 111" cx="0.093" cy="0.093" r="0.093" transform="translate(106.03 103.09)" fill="#fff"/>
      <circle id="楕円形_112" data-name="楕円形 112" cx="0.093" cy="0.093" r="0.093" transform="translate(105.711 103.61)" fill="#fff"/>
      <circle id="楕円形_113" data-name="楕円形 113" cx="0.093" cy="0.093" r="0.093" transform="translate(105.758 104.635)" fill="#fff"/>
      <circle id="楕円形_114" data-name="楕円形 114" cx="0.093" cy="0.093" r="0.093" transform="translate(103.591 106.383)" fill="#fff"/>
      <circle id="楕円形_115" data-name="楕円形 115" cx="0.093" cy="0.093" r="0.093" transform="translate(103.234 107.004)" fill="#fff"/>
      <circle id="楕円形_116" data-name="楕円形 116" cx="0.093" cy="0.093" r="0.093" transform="translate(104.515 103.68)" fill="#fff"/>
      <circle id="楕円形_117" data-name="楕円形 117" cx="0.093" cy="0.093" r="0.093" transform="translate(103.839 103.377)" fill="#fff"/>
      <circle id="楕円形_118" data-name="楕円形 118" cx="0.093" cy="0.093" r="0.093" transform="translate(102.41 103.509)" fill="#fff"/>
      <circle id="楕円形_119" data-name="楕円形 119" cx="0.093" cy="0.093" r="0.093" transform="translate(102.465 102.663)" fill="#fff"/>
      <circle id="楕円形_120" data-name="楕円形 120" cx="0.093" cy="0.093" r="0.093" transform="translate(104.065 99.641)" fill="#fff"/>
      <circle id="楕円形_121" data-name="楕円形 121" cx="0.093" cy="0.093" r="0.093" transform="translate(106.706 91.517)" fill="#fff"/>
      <circle id="楕円形_122" data-name="楕円形 122" cx="0.194" cy="0.194" r="0.194" transform="translate(107.405 93.878)" fill="#fff"/>
    </g>
  </g>
</svg>
