<svg xmlns="http://www.w3.org/2000/svg" width="353" height="353" viewBox="0 0 353 353">
  <g id="グループ_367" data-name="グループ 367" transform="translate(0.143)">
    <circle id="楕円形_59" data-name="楕円形 59" cx="176.5" cy="176.5" r="176.5" transform="translate(-0.143 0)" fill="#171c61"/>
    <path id="_130944_更新済み_" data-name="130944 [更新済み]" d="M303.761,227.944H270.113a13.711,13.711,0,0,0-4.509-4.622V168.9a6.938,6.938,0,0,0-13.875,0v54.424a13.232,13.232,0,1,0,18.038,18.486h33.994a6.932,6.932,0,1,0,0-13.865ZM258.666,126.2A108.366,108.366,0,1,0,367.032,234.566,108.335,108.335,0,0,0,258.666,126.2ZM320.55,296.578a87.739,87.739,0,1,1,25.669-62.012A87.281,87.281,0,0,1,320.55,296.578Z" transform="translate(-82.506 -58.205)" fill="#fff"/>
  </g>
</svg>
