<svg xmlns="http://www.w3.org/2000/svg" width="325.612" height="146.008" viewBox="0 0 325.612 146.008">
  <g id="グループ_521" data-name="グループ 521" transform="translate(-970.72 -2893.752)">
    <path id="パス_507" data-name="パス 507" d="M578.2,266.3c1.2-.2,1.8-.5,2.3-.3,5.2,1.4,10.4,2.6,14.7,6,4.1,3.2,8.2,6.2,12.5,9.1a15.182,15.182,0,0,0,5.3,2.5c5.4,1.3,10.8,2.5,16.3,3.6a18.193,18.193,0,0,0,11-1.6c2.9-1.3,5.7-2.8,8.6-4.1,2.5-1.1,5-2.5,7.7-2.3a1.9,1.9,0,0,1,.4,2.8c-1.3,2-2.8,3.9-4.2,5.7-1,1.2-2.1,2.4-3.2,3.5a8.066,8.066,0,0,0-1.8,9.3,17.89,17.89,0,0,1,1.3,10.5c-.4,2.2-1.9,3.1-3.9,2.1a43.422,43.422,0,0,1-4.6-2.8c-3.2-2-6.4-3.9-9.7-5.9a8.986,8.986,0,0,0-9.1-.4c-1.6.8-3.2,1.6-4.8,2.3a13.015,13.015,0,0,0-5.9,5.7c-1.1,2.1-2.3,4.2-3.5,6.2A3.8,3.8,0,0,1,603,320a19.387,19.387,0,0,1-4.9-2,8.237,8.237,0,0,0-7.3-1,66.528,66.528,0,0,1-9.9,1.9,45.721,45.721,0,0,1-8.3.6c-3.4-.1-6.7,0-9.8,1.7a8.781,8.781,0,0,1-2.3.7,3.237,3.237,0,0,1-3.7-2.3,6.15,6.15,0,0,1-.3-1.1c.2-4-2.3-6.1-5.4-7.8s-6.2-3.5-9.3-5.3c-3.4-2-6.8-4.1-9.2-7.4-1.6-2.3-1.6-3.9.5-5.8a28.788,28.788,0,0,1,5.2-4c7-4.2,14-8.3,21-12.4a23.861,23.861,0,0,1,12-3.1c1.9,0,3.9-.2,6-.3.2-1.3.4-2.2.5-3.2A9.5,9.5,0,0,0,578.2,266.3Z" transform="translate(638.889 2705.041)" fill="#7eb9e6"/>
    <g id="グループ_511" data-name="グループ 511">
      <path id="パス_1377" data-name="パス 1377" d="M11.826,23.766c-.7,0-1.408-.088-2.112-.088C3.2,23.15-.4,18.926.036,12.415.388,7.136,5.051,1.593,10.243.361a11.525,11.525,0,0,1,13.286,5.9c2.2,4.311,1.056,10.471-2.728,13.99A11.429,11.429,0,0,1,11.826,23.766Z" transform="matrix(0.996, 0.087, -0.087, 0.996, 1014.392, 2893.752)" fill="#7eb9e6"/>
      <path id="パス_1381" data-name="パス 1381" d="M.009,11.665C.1,6.122,5.112.667,10.392.051A7.968,7.968,0,0,1,18.311,4.01a11.738,11.738,0,0,1-7.567,17.6,2.166,2.166,0,0,1-1.056.088c-2.64-.88-5.367-1.584-7.391-3.607A8.336,8.336,0,0,1,.009,11.665Z" transform="matrix(0.996, 0.087, -0.087, 0.996, 972.614, 2980.277)" fill="#a3d9e8"/>
      <path id="パス_1379" data-name="パス 1379" d="M16.988,7.485c0,5.1-3.432,9.239-7.919,9.327A8.953,8.953,0,0,1,.006,7.925C-.169,3.438,3.262.094,7.925.006,12.765-.17,16.988,3.438,16.988,7.485Z" transform="matrix(0.996, 0.087, -0.087, 0.996, 977.842, 2924.69)" fill="#76bae7"/>
      <path id="パス_1384" data-name="パス 1384" d="M16.988,7.485c0,5.1-3.432,9.239-7.919,9.327A8.953,8.953,0,0,1,.006,7.925C-.169,3.438,3.262.094,7.925.006,12.765-.17,16.988,3.438,16.988,7.485Z" transform="matrix(0.996, 0.087, -0.087, 0.996, 1008.729, 2942.636)" fill="#76bae7"/>
      <path id="パス_1382" data-name="パス 1382" d="M5.772,13.582C1.989,13.494-.651,9.886.141,5.927.933,2.055,5.42-1.992,10.523,1.088a8.953,8.953,0,0,1,2.816,2.288,4.14,4.14,0,0,1,.88,2.816A8.139,8.139,0,0,1,5.772,13.582Z" transform="matrix(0.996, 0.087, -0.087, 0.996, 1002.28, 2991.598)" fill="#a3d9e8"/>
      <path id="パス_1383" data-name="パス 1383" d="M11.137,6.458a6.97,6.97,0,0,1-5.983,6.687A5.106,5.106,0,0,1,.578,10.329c-1.76-3.607.7-9.063,4.575-10.207A3.556,3.556,0,0,1,8.5,1,8.272,8.272,0,0,1,11.137,6.458Z" transform="matrix(0.996, 0.087, -0.087, 0.996, 986.465, 3025.678)" fill="#7eb9e6"/>
      <path id="パス_1380" data-name="パス 1380" d="M4.226,9.769C1.5,9.769.091,8.361,0,5.721-.085,2.642,2.114-.086,4.754,0a4.873,4.873,0,0,1,4.4,4.311A5.006,5.006,0,0,1,4.226,9.769Z" transform="matrix(0.996, 0.087, -0.087, 0.996, 979.867, 2955.601)" fill="#7eb9e6"/>
    </g>
  </g>
</svg>
