<svg xmlns="http://www.w3.org/2000/svg" width="287.492" height="196.035" viewBox="0 0 287.492 196.035">
  <g id="グループ_522" data-name="グループ 522" transform="translate(-135 -2758.08)">
    <path id="パス_506" data-name="パス 506" d="M381.6,318.6c1.4-2.3,3.9-3.3,6-4.8,3.7-2.6,7.6-5.1,11.1-8,6.9-5.7,11.2-13.3,14.9-21.3,2.7-6,5.1-12.1,7.3-18.2,1.5-4.1,2.7-8.3,1.4-12.8a6.381,6.381,0,0,1-.1-2.4c.3-7.2-2.4-13.6-5.3-20-2.8-6.2-7.8-9.3-14.4-10-13.7-1.4-25.4,2.9-35.1,12.7-1.7,1.7-3.4,3.3-5.2,4.9a3.545,3.545,0,0,1-1.1.3c-1.2-.4-1.3-1.4-1.2-2.4a82.634,82.634,0,0,1,2-9.9,119.931,119.931,0,0,1,15.3-32.1c6.6-10.1,14.9-18.5,23.8-26.5a41.6,41.6,0,0,0,8.8-10.4c.9-1.5,1.6-3.2,3.8-4,1,.7,2,1.5,3.1,2.3a7.21,7.21,0,0,0,8.9.3c1.7-1,3.3-2,5.2-3.2a16.455,16.455,0,0,1,2.3,2.2,30.712,30.712,0,0,1,2.7,4.6c1.8,4,4.9,6.7,8.6,8.8,9.8,5.4,17,13.6,23.6,22.4a97.534,97.534,0,0,1,14.7,29.8,51.7,51.7,0,0,1,1.8,8.7c.3,2.2-1.1,3.2-3.4,2.7a28.09,28.09,0,0,1-9.3-3.8c-3.1-2.1-6.3-4.1-9.5-6.1a23.477,23.477,0,0,0-14.1-3.8c-2.6.2-5.2.1-7.7.2-6.4.4-8.7,2.2-10.4,8.6-.8,2.9-1.4,5.8-2,8.7a60.865,60.865,0,0,0-1.7,15.3,39.781,39.781,0,0,1-3.3,18c-3.1,7.3-6,14.7-9.6,21.8-6.7,13.4-17.6,22.3-31.4,27.7Z" transform="translate(-157.41 2548.619) rotate(11)" fill="#7eb9e6"/>
    <g id="グループ_512" data-name="グループ 512">
      <path id="パス_1372" data-name="パス 1372" d="M1348.323,247.116c-.72-2.641-1.28-4.8-1.92-6.962-2.081-6.722.08-12.084,4.8-16.885,3.841-3.841,14.964-4.641,19.606,2.161a12.464,12.464,0,0,1,1.6,10.483,17.653,17.653,0,0,1-4.321,7.842c-.96,1.04-2.081,2-3.041,3.041a8.785,8.785,0,0,1-9.523,2.641A50.184,50.184,0,0,1,1348.323,247.116Z" transform="translate(-964.497 2617.658)" fill="#7eb9e6"/>
      <path id="パス_1374" data-name="パス 1374" d="M1377.448,296.957a20.721,20.721,0,0,1-3.109,10.314,6.272,6.272,0,0,1-3.488,2.73,13.623,13.623,0,0,1-11.754-.91,11.968,11.968,0,0,1-5.915-8.645,7.907,7.907,0,0,1,.834-4.323,18.155,18.155,0,0,1,11-9.328c4.4-1.365,9.934,1.668,11.6,6.294A18.867,18.867,0,0,1,1377.448,296.957Z" transform="translate(-954.956 2595.795)" fill="#76bae7"/>
      <path id="パス_1370" data-name="パス 1370" d="M1375.3,106.7c0,3.9-1,6.9-3.5,9.1a68.455,68.455,0,0,1-7.6,5.7,8.262,8.262,0,0,1-7.5.6,15.764,15.764,0,0,1-10-20.1,15.391,15.391,0,0,1,19.7-9.5,10.824,10.824,0,0,1,6.6,5.6A22.58,22.58,0,0,1,1375.3,106.7Z" transform="translate(-962.418 2666.436)" fill="#a3d9e8"/>
      <path id="パス_1375" data-name="パス 1375" d="M1343.9,346.4c-.1-5.8,3.6-10.1,9.1-10.7a5.385,5.385,0,0,1,2.8.5c3.5,1.8,5,5,4.9,8.8,0,3.7-1.3,7.1-4.6,9.1-4.8,2.8-11.5-.7-12.2-6.1C1343.9,347.4,1343.9,346.8,1343.9,346.4Z" transform="translate(-964.497 2586.795)" fill="#a3d9e8"/>
      <path id="パス_1371" data-name="パス 1371" d="M1353.3,158.5c-4.3-.1-7.3-4.2-6.4-8.7.9-4.4,6-9,11.8-5.5a10.175,10.175,0,0,1,3.2,2.6,4.705,4.705,0,0,1,1,3.2A9.25,9.25,0,0,1,1353.3,158.5Z" transform="translate(-962.418 2655.159)" fill="#a3d9e8"/>
    </g>
  </g>
</svg>
