<svg xmlns="http://www.w3.org/2000/svg" width="274" height="49" viewBox="0 0 274 49">
  <g id="グループ_299" data-name="グループ 299" transform="translate(-115 -19.313)">
    <g id="グループ_181" data-name="グループ 181" transform="translate(193.157 19)">
      <text id="葛西臨海水族園" transform="translate(-0.156 25.313)" fill="#1a264e" font-size="28" font-family="TsukuARdGothic-Bold, Tsukushi A Round Gothic" font-weight="700"><tspan x="0" y="0">葛西臨海水族園</tspan></text>
      <text id="Tokyo_Sea_Life_Park" data-name="Tokyo Sea Life Park" transform="translate(-0.156 44.313)" fill="#1a264e" font-size="17" font-family="TsukuARdGothic-Bold, Tsukushi A Round Gothic" font-weight="700"><tspan x="0" y="0">Tokyo Sea Life Park</tspan></text>
    </g>
    <g id="グループ_274" data-name="グループ 274" transform="translate(115 21.832)">
      <path id="パス_229" data-name="パス 229" d="M155.8,100.948c-2.121,0-3.444-.09-3.6-.112a1.22,1.22,0,0,1-1.14-1.321A1.242,1.242,0,0,1,152.4,98.4c.137,0,14.324,1.075,26.572-4.233,10.606-4.591,18.019-12.362,18.68-15.9a1.159,1.159,0,0,0-.16-1.03.855.855,0,0,0-.456-.269c-.616.067-1.756,1.724-2.441,2.71-1.186,1.747-2.326,3.4-3.969,3.4a2.8,2.8,0,0,1-3.125-2.889v-.336c-1.118,2.643-2.76,4.389-5.52,4.389a4.387,4.387,0,0,1-4.516-3.919V67.848c0-4.994-8.462-8.085-16.308-8.085-10.059,0-20,9.585-20.094,9.675a1.3,1.3,0,0,1-1.779,0,1.241,1.241,0,0,1,0-1.747c.433-.426,10.766-10.391,21.873-10.391a27.877,27.877,0,0,1,13.434,3.023c3.421,1.948,5.383,4.681,5.383,7.5v12.25a1.877,1.877,0,0,0,2.007,1.657c2.942,0,3.946-4.166,5.246-11.019.3-1.545.593-3.135.958-4.7a1.26,1.26,0,0,1,2.486.314c-.228,4.277-.639,12.653-.639,13.8,0,.314,0,.425.57.425a9.036,9.036,0,0,0,1.916-2.307c1.209-1.769,2.463-3.606,4.265-3.785a3.03,3.03,0,0,1,2.463.941,3.379,3.379,0,0,1,.89,3.225c-.867,4.725-9.146,12.967-20.117,17.737C170.851,100.344,160.975,100.948,155.8,100.948Zm34.76-20.357Z" transform="translate(-127.247 -57.3)" fill="#1a264e"/>
      <path id="パス_230" data-name="パス 230" d="M90.718,116.6a1.008,1.008,0,0,1-.5-.114,1.248,1.248,0,0,1-.661-1.642,25.183,25.183,0,0,1,4.835-6.82,28.35,28.35,0,0,1,16.81-8.348c15.875-2.144,21.622,2.121,26.549,7.048a1.258,1.258,0,1,1-1.779,1.779c-4.653-4.653-9.694-8.325-24.451-6.341a25.567,25.567,0,0,0-19.684,13.685A1.214,1.214,0,0,1,90.718,116.6Z" transform="translate(-89.059 -89.857)" fill="#1a264e"/>
      <path id="パス_231" data-name="パス 231" d="M96.205,179.317a1.256,1.256,0,0,1-.821-.3c-2.212-1.893-6.158-1.323-6.2-1.323a1.258,1.258,0,0,1-.388-2.486c.205-.023,5.109-.775,8.234,1.893a1.262,1.262,0,0,1,.137,1.779A1.3,1.3,0,0,1,96.205,179.317Z" transform="translate(-87.726 -148.767)" fill="#1a264e"/>
      <g id="グループ_163" data-name="グループ 163" transform="translate(13.018 18.321)">
        <path id="パス_232" data-name="パス 232" d="M146.078,155.114a1.262,1.262,0,0,1-.639-2.349c2.235-1.3,5.063-3.855,5.36-4.7-.114-.912-2.691-3.695-5.52-5.93a1.25,1.25,0,1,1,1.551-1.962c1.939,1.551,6.455,5.406,6.455,7.937,0,.684-.3,1.733-2.6,3.832a25.679,25.679,0,0,1-4.014,2.988A.959.959,0,0,1,146.078,155.114Zm4.721-7.071Z" transform="translate(-144.801 -139.901)" fill="#1a264e"/>
        <path id="パス_233" data-name="パス 233" d="M157.044,160.423a1.3,1.3,0,0,1-.958-.433,1.264,1.264,0,0,1,.137-1.779,3.514,3.514,0,0,0,1.6-2.805,6.972,6.972,0,0,0-1.893-3.923,1.249,1.249,0,1,1,1.574-1.939,9.241,9.241,0,0,1,2.805,5.862,5.994,5.994,0,0,1-2.463,4.721A1.328,1.328,0,0,1,157.044,160.423Z" transform="translate(-153.03 -147.126)" fill="#1a264e"/>
      </g>
      <path id="パス_234" data-name="パス 234" d="M120.49,159.379a2.19,2.19,0,1,1,2.19-2.19A2.19,2.19,0,0,1,120.49,159.379Zm0-3.011a.821.821,0,1,0,.821.821A.818.818,0,0,0,120.49,156.369Z" transform="translate(-111.327 -133.164)" fill="#1a264e"/>
      <g id="グループ_164" data-name="グループ 164" transform="translate(1.087 29.225)">
        <path id="パス_235" data-name="パス 235" d="M118.221,201.2c-.89,0-14.6-.137-23.88-8.188-.046-.046-.114-.091-.182-.16-.89-.73-1.642-1.391-1.665-2.258a1.434,1.434,0,0,1,.456-1.14c1.254-1.209,4.174.205,4.288.251a17.324,17.324,0,0,1,2.281,1.368,1.272,1.272,0,0,1,.319,1.756,1.169,1.169,0,0,1-.776.5c8.439,5.269,19.022,5.337,19.2,5.337h0a1.266,1.266,0,0,1,1.254,1.254,1.251,1.251,0,0,1-1.254,1.254C118.243,201.2,118.243,201.2,118.221,201.2Z" transform="translate(-92.491 -188.962)" fill="#1a264e"/>
        <ellipse id="楕円形_48" data-name="楕円形 48" cx="0.753" cy="2.03" rx="0.753" ry="2.03" transform="matrix(0.589, -0.808, 0.808, 0.589, 2.409, 2.626)" fill="#1a264e"/>
      </g>
    </g>
  </g>
</svg>
