<?xml version="1.0" encoding="utf-8"?>
<!-- Generator: Adobe Illustrator 26.5.0, SVG Export Plug-In . SVG Version: 6.00 Build 0)  -->
<svg version="1.1" id="レイヤー_1" xmlns="http://www.w3.org/2000/svg" xmlns:xlink="http://www.w3.org/1999/xlink" x="0px"
	 y="0px" viewBox="0 0 274 49" style="enable-background:new 0 0 274 49;" xml:space="preserve">
<style type="text/css">
	.st0{enable-background:new    ;}
	.st1{fill:#FFFFFF;}
</style>
<g id="グループ_299" transform="translate(-115 -19.313)">
	<g id="グループ_181" transform="translate(193.157 19)">
		<g class="st0">
			<path class="st1" d="M8.6,15.1c-2.9-0.1-2.9-1.4-2.9-3.8c0-2.2,0-3.6,2.8-3.8c1.4-0.1,3.2-0.1,5.1-0.1s3.9,0,5.5,0.1
				c2.7,0.1,2.7,2,2.7,3.5c0,2.2,0,4-2.8,4.1c-1.7,0.1-3.6,0.1-5.4,0.1c-0.6,0-1.2,0-1.8,0c-0.4,0.5-0.9,1-1.4,1.5
				c2.8,0,6.6,0,9.4,0c0.7,0,1.3,0,1.9,0c2,0,3,1.1,3,2.7c0,0.2,0,0.5-0.1,0.7c-0.4,2.4-1.2,7.3-7.2,7.3c-0.9,0-1.8-0.1-2.9-0.3
				c-0.6-0.1-0.9-0.6-0.9-1.1c0-0.3,0.1-0.6,0.3-0.8c-0.6,0.1-1.3,0.1-2,0.1c-3.5,0-5.3-0.3-5.3-2.4c0,0,0.1-2.2,0.1-2.7
				c0-0.2,0.1-0.3,0.1-0.5c-0.8,0.6-3.1,2-4,2c-0.8,0-1.2-0.6-1.2-1.2c0-0.4,0.3-0.9,0.8-1.1c2.2-1,4.3-2,6.5-4.2L8.6,15.1z M18.3,6
				v0.3c0,0.7-0.6,1-1.3,1s-1.3-0.3-1.3-1V6h-3.8v0.3c0,0.7-0.6,1-1.3,1c-0.6,0-1.3-0.3-1.3-1V6l-5.8,0C2.8,6.1,2.4,5.5,2.4,5
				c0-0.6,0.4-1.1,1.2-1.1l5.8,0V3.1c0-0.6,0.6-1,1.3-1c0.6,0,1.3,0.3,1.3,1v0.8h3.8V3.1c0-0.6,0.6-1,1.3-1s1.3,0.3,1.3,1v0.8l6.1,0
				c0.8,0,1.1,0.6,1.1,1.1c0,0.6-0.4,1.1-1.1,1.1L18.3,6z M9.1,22.3v0.3c0,0.6,0.4,0.8,2.8,0.8c3.6,0,3.9-0.4,3.9-1.1
				c0-0.6,0.6-0.9,1.1-0.9c0.6,0,1.3,0.3,1.3,0.9c0,0,0,0.1,0,0.1c0,1.7-0.9,2.4-2.9,2.7c0.8,0.2,1.5,0.3,2.1,0.3
				c3.9,0,4.3-5,4.3-5.4c0-0.8-0.4-1.1-1-1.1c-2,0-5.6,0.1-8.8,0.1c-1.4,0-2.8,0-3.8,0c-0.2,0.1-0.4,0.3-0.5,0.4
				c0.1,0,0.3-0.1,0.4-0.1c0.6,0,1.2,0.3,1.2,1v0v0.5c1.7-0.3,4.8-0.9,6.2-1.3c0.1-0.1,0.3-0.1,0.4-0.1c0.6,0,1.1,0.5,1.1,1
				c0,0.4-0.3,0.8-0.9,0.9C14.4,21.6,10.6,22.2,9.1,22.3L9.1,22.3z M19.1,10.2c-0.1-0.9-0.4-0.9-5.3-0.9c-5.1,0-5.6,0-5.7,1l0,0.3
				h11V10.2z M19.1,12.1h-11c0,0.2,0,0.3,0,0.5c0.1,0.7,0.4,0.8,1.2,0.8c1.3,0,3.1,0,4.8,0c1.3,0,2.6,0,3.8,0c0.6,0,1.2-0.2,1.2-0.8
				V12.1z"/>
			<path class="st1" d="M45.5,6.6c0,0.8,0,1.9,0,3c1.3,0,2.5,0,3.7,0c1.8,0,3.4,0.9,3.5,3.1c0.1,1.7,0.1,3.5,0.1,5.3
				c0,1.6,0,3.1-0.1,4.5c-0.1,2-1.3,3.4-3.5,3.5C46.8,26,44.3,26,42,26c-2.4,0-4.8,0-7-0.1c-2.5-0.1-3.7-1.3-3.8-3.4
				c0-1.5-0.1-3-0.1-4.5c0-1.8,0-3.6,0.1-5.4s1.3-3,3.5-3.1l3.1,0c0,0,0,0,0-3H31c-0.8,0-1.3-0.6-1.3-1.3c0-0.6,0.4-1.2,1.3-1.2
				h21.8c0.8,0,1.3,0.6,1.3,1.3c0,0.6-0.4,1.2-1.3,1.2H45.5z M35.8,11.8c-1.7,0-2,0.5-2,1.9c0,1.4-0.1,3.4-0.1,5.3
				c0.1-0.3,0.3-0.5,0.7-0.6c2.9-1.3,3.3-4.3,3.4-6.6C37.1,11.8,36.4,11.8,35.8,11.8z M40.3,11.8c-0.1,3.2-0.7,6.7-4.4,8.7
				c-0.4,0.2-0.7,0.3-1,0.3c-0.6,0-1-0.3-1.2-0.7c0,2.7,0,3.4,2.2,3.5c1.8,0.1,3.8,0.1,5.8,0.1s4.2,0,6.2-0.1c1.5,0,2-0.7,2-1.9
				c0.1-1.2,0.1-2.5,0.1-3.9c0-1.4,0-2.7-0.1-4c-0.1-1.6-0.6-1.8-2-1.8c-0.9,0-1.8,0-2.8,0c0,2,0,4.5,0,4.8c0,0.7,0.6,0.8,1,0.8
				c0.8,0,1-0.4,1-1.2c0.1-0.7,0.6-1,1.1-1c0.7,0,1.3,0.4,1.3,1.1c0,1.4-0.5,3.4-3.6,3.4c-1.4,0-3.4-0.3-3.4-2.8c0-0.3,0-3.1,0-5.2
				H40.3z M40.4,6.6c0,3,0,3,0,3c0.8,0,1.6,0,2.4,0c0-1.1,0-2.2,0-3H40.4z"/>
			<path class="st1" d="M68.1,23.5c-0.3,0.8-0.8,0.8-4.7,0.8c-3.2,0-4.7,0-4.8-2.7c0-1.7-0.1-4.8-0.1-7.8c0-3,0-6,0.1-7.6
				c0-1.7,1.1-2.5,2.4-2.5c0.9,0,2.2,0,3.5,0c1,0,1.8,0,2.4,0c0.8,0,1.2,0.6,1.2,1.2c0,0.6-0.4,1.2-1.2,1.2h-1.9v3.8
				c0.3,0,0.5,0,0.7,0c1.9,0.1,1.9,0.9,1.9,4.5c0,2.5-0.2,3.2-2,3.3c-0.1,0-0.4,0.1-0.6,0.1v4.2c0.7,0,1.4-0.1,1.9-0.1
				c0,0,0.1,0,0.1,0c0.5,0,0.9,0.3,1,0.6c0-1,0-2.1,0-3c0.1-2,1-2.2,3.1-2.2c1.7,0,3,0,3,2.2c0,1,0,1.8,0,2.6c0,4-0.3,4.3-3.2,4.3
				c-1.7,0-2.9-0.1-3-2.3V23.5z M62.9,6c-0.4,0-0.8,0-1.1,0C61,6.1,61,6.4,61,9.9h1.9V6z M61,15.6c0.3,0,0.7,0,1.1,0
				c3.3,0,3.3,0,3.4-0.7c0-0.2,0-0.6,0-1c0-0.5,0-1.1,0-1.3c-0.1-0.6-0.2-0.7-1.7-0.7c-0.8,0-1.8,0-2.8,0V15.6z M62.9,17.8
				c-0.6,0-1.3,0-1.9,0c0,1.4,0.1,2.6,0.1,3.3c0,0.8,0.3,0.9,1.8,0.9V17.8z M71.5,7.6c-1.2,2.5-1.9,3.1-2.6,3.1
				c-0.7,0-1.3-0.5-1.3-1.2c0-0.3,0.1-0.5,0.3-0.8c1.3-1.7,2-3.4,2.7-5.3c0.2-0.6,0.6-0.8,1.1-0.8C72.3,2.5,73,3,73,3.7
				c0,0.3-0.1,0.5-0.5,1.5l7.6-0.1c0.8,0,1.2,0.6,1.2,1.2c0,0.6-0.4,1.2-1.2,1.2H71.5z M70.6,19.6c-0.5,0-0.5,0.4-0.5,2.4
				c0,1.8,0.1,2.2,0.5,2.2c1.6,0,1.6,0,1.7-0.8c0-0.5,0-0.9,0-1.3c0-2.3,0-2.4-0.5-2.5H70.6z M74.8,16.5c-4.1,0-4.6-0.1-4.6-3.8
				c0-0.5,0-1,0-1.3c0.1-1.3,0.9-2.1,2.1-2.2c0.6,0,1.5-0.1,2.3-0.1c3.5,0,4.4,0,4.4,3.5C79.1,16,78.6,16.5,74.8,16.5z M76.8,12.7
				c0-0.3,0-0.6,0-0.8c-0.1-0.8-0.2-0.8-2.1-0.8c-2.2,0-2.2,0-2.2,1.7c0,0.3,0,0.6,0,0.8c0.1,0.8,0.3,0.8,2.1,0.8c1.9,0,2,0,2.1-0.8
				C76.8,13.3,76.8,13,76.8,12.7z M75.3,22.2c0-0.9,0-1.8,0-2.7c0.1-2.1,1.2-2.2,3.1-2.2c1.7,0,3.1,0,3.1,2.2c0,1.1,0.1,2.1,0.1,3.1
				c0,3.1-0.3,3.8-3.3,3.8C75.5,26.4,75.3,25.9,75.3,22.2z M77.9,19.6c-0.5,0-0.5,0.4-0.5,2.4c0,0.5,0,1,0,1.5
				c0.1,0.7,0.1,0.7,1.4,0.7c0.8,0,0.9-0.1,0.9-2.1c0-2.3,0-2.4-0.5-2.5H77.9z"/>
			<path class="st1" d="M88.7,13.7c-1-0.8-2-1.3-3-1.7c-0.5-0.2-0.7-0.6-0.7-0.9c0-0.6,0.6-1.3,1.3-1.3c0.5,0,2.5,0.6,3.8,1.5
				c0.4,0.3,0.6,0.7,0.6,1.2c0,0.8-0.6,1.5-1.3,1.5C89.2,14,88.9,13.9,88.7,13.7z M86.8,26.6c-0.8,0-1.5-0.6-1.5-1.4
				c0-0.3,0.1-0.6,0.4-0.9c1.7-1.9,2.8-4,3.9-6.8c0.2-0.5,0.7-0.8,1.1-0.8c0.7,0,1.3,0.5,1.3,1.3c0,0.6-1.5,4.8-4,7.9
				C87.7,26.4,87.3,26.6,86.8,26.6z M89.9,7.4c-0.8-1-1.8-1.7-2.5-2.1c-0.4-0.2-0.5-0.6-0.5-0.9c0-0.6,0.6-1.3,1.4-1.3
				c0.7,0,4,1.8,4,3.2c0,0.8-0.7,1.5-1.4,1.5C90.5,7.9,90.2,7.8,89.9,7.4z M96.4,7.3c-0.8,1.2-1.6,2.3-2.6,3.4
				c-0.3,0.4-0.8,0.5-1.1,0.5c-0.7,0-1.4-0.5-1.4-1.2c0-0.3,0.1-0.6,0.4-0.9c1.8-1.9,3.2-4.1,4.2-6.3c0.2-0.5,0.7-0.7,1.1-0.7
				c0.7,0,1.4,0.5,1.4,1.2c0,0.4-0.3,0.8-0.6,1.5l10.5-0.1c0.8,0,1.2,0.6,1.2,1.3c0,0.6-0.4,1.3-1.2,1.3H96.4z M106.8,23.2
				c-0.8,2.8-2.5,4.1-4.9,4.1c-0.7,0-1.4-0.1-2.2-0.3c-0.5-0.1-0.8-0.6-0.8-1.1c0-0.6,0.4-1.3,1.2-1.3c0.1,0,0.3,0,0.4,0.1
				c0.5,0.2,1,0.2,1.4,0.2c1,0,1.7-0.5,2.1-1.6l-7.8,0.1c0,0-0.1,0-0.1,0c-2,0-3-1.1-3-2.5c0-0.3,0.1-0.6,0.1-1
				c0.2-0.8,0.4-1.7,0.6-2.7h-1c-0.9,0-1.3-0.6-1.3-1.1c0-0.6,0.4-1.2,1.3-1.2h1.3c0.1-0.9,0.3-1.8,0.4-2.7c0.3-2.2,1.2-2.9,3.4-3
				c1.2,0,2.7-0.1,4.1-0.1c0.9,0,1.7,0,2.4,0c1.8,0.1,3.1,0.9,3.1,2.6c0,0.9,0,2-0.1,3.1h2c0.8,0,1.2,0.6,1.2,1.2
				c0,0.6-0.4,1.2-1.2,1.2h-2.1c-0.1,1.3-0.2,2.6-0.3,3.7h1.6c0.8,0,1.1,0.6,1.1,1.1c0,0.6-0.4,1.1-1.1,1.1H106.8z M99,21
				c0.2-1.2,0.3-2.5,0.5-3.8h-3.1c-0.2,1.1-0.3,2.2-0.5,2.9c0,0.1,0,0.1,0,0.1c0,0.4,0.3,0.8,0.9,0.8L99,21z M99.6,14.9
				c0.1-1.3,0.2-2.6,0.3-3.7c-2.2,0-2.7,0-2.9,1.1c-0.1,0.7-0.2,1.6-0.3,2.6H99.6z M104.7,20.9c0.2-1.1,0.3-2.4,0.4-3.8h-3.2
				c-0.1,1.3-0.3,2.7-0.5,3.8L104.7,20.9z M105.1,14.9c0-1,0-1.8,0-2.6c0-1-0.8-1-2.9-1c-0.1,1.1-0.1,2.4-0.3,3.7H105.1z"/>
			<path class="st1" d="M113.4,22.7c0-0.4,0.2-0.8,0.7-1.1c4-2.4,6.4-8.2,6.4-9.3c0-0.3-0.2-0.3-0.4-0.3c-0.2,0-0.4,0-0.6,0
				c-1.3,0-3.1,0.1-3.9,0.1c0,0,0,0-0.1,0c-0.8,0-1.1-0.6-1.1-1.2c0-0.6,0.4-1.3,1.1-1.3c0.9,0,2.6,0,4,0c2.5,0,3.9,0,3.9,1.9
				c0,0.4-0.1,0.8-0.2,1.3c-1.6,6.1-6.7,11.5-8.4,11.5C114.1,24.1,113.4,23.4,113.4,22.7z M124.6,4.2c0-0.9,0.7-1.3,1.4-1.3
				c0.7,0,1.3,0.4,1.3,1.3v1.2c0.1,2,0.8,4.4,1.9,6.7c1.8-1.1,3.6-2.5,5.2-4.1c0.3-0.3,0.6-0.4,0.9-0.4c0.8,0,1.6,0.7,1.6,1.5
				c0,0.4-0.2,0.8-0.6,1.1c-1.8,1.5-3.9,2.8-5.8,3.9c0,0-0.1,0-0.1,0c1.8,3,4.1,5.6,6.9,7c0.6,0.3,0.9,0.8,0.9,1.3
				c0,0.8-0.6,1.5-1.6,1.5c-1.9,0-6.6-4.4-9.3-11.2l0.1,6.7l0.1,3.3c0,0,0,0.1,0,0.1c0,2-1.1,4.1-4.7,4.1c-3.1,0-3.5-0.8-3.5-1.6
				c0-0.7,0.5-1.4,1.3-1.4c0.1,0,0.2,0,0.3,0c0.7,0.2,1.4,0.3,2,0.3c1.1,0,1.8-0.4,1.8-1.9V4.2z"/>
			<path class="st1" d="M150.9,9.2l-3.5-0.1c-0.1,0.8-0.1,1.7-0.2,2.6c0.5,0,1.1,0,1.6,0c1.1,0,2.9,0.1,2.9,2.5c0,0.1,0,0.1,0,0.2
				c-0.2,5.8-0.4,12-4.7,12c-1.5,0-2.5-0.5-2.5-1.6c0-0.6,0.4-1.2,1-1.2c0.2,0,0.3,0,0.5,0.1c0.3,0.1,0.6,0.2,0.8,0.2
				c0.5,0,2.2-0.1,2.3-8.9c0-0.6-0.3-0.9-0.8-0.9c0,0,0,0-1.4,0c-0.5,4.6-1.5,9.2-3.9,12.2c-0.3,0.4-0.7,0.5-1.1,0.5
				c-0.7,0-1.4-0.6-1.4-1.2c0-0.3,0.1-0.5,0.3-0.7c3.1-3.8,3.7-10.1,4-15.6l-2,0c-0.1,0-1.3,0-1.3-1.2c0-0.6,0.5-1.3,1.3-1.3h0
				l2.8,0.1l0-3.1c0-0.9,0.7-1.3,1.4-1.3c0.7,0,1.4,0.4,1.4,1.3v3.1l2.5-0.1h0c0.8,0,1.2,0.6,1.2,1.2C152.2,8.6,151.7,9.2,150.9,9.2
				L150.9,9.2z M155.5,8.4c-1.9,3.4-2.5,3.6-3.1,3.6c-0.7,0-1.3-0.5-1.3-1.2c0-0.3,0.1-0.6,0.3-0.8c1.7-2,2.7-4.3,3.6-6.7
				c0.2-0.6,0.7-0.8,1.1-0.8c0.7,0,1.4,0.5,1.4,1.2c0,0.4-0.7,2-0.8,2.3l8-0.1c0.8,0,1.2,0.6,1.2,1.2s-0.4,1.2-1.2,1.2H155.5z
				 M164.4,19.2l-4-0.1c0.8,2.3,2.6,4.3,5,5.2c0.6,0.3,0.9,0.7,0.9,1.2c0,0.7-0.6,1.3-1.5,1.3c-1.2,0-4.2-1.8-5.9-5.5
				c-2,4.6-5.9,5.7-6.4,5.7c-0.8,0-1.4-0.6-1.4-1.3c0-0.5,0.3-1,0.9-1.2c2.8-1,4.5-3.2,5.1-5.5l-3.8,0.1h0c-0.8,0-1.1-0.5-1.1-1.1
				s0.4-1.1,1.2-1.1h4.1c0-0.8,0-2,0-2.9h-1.3c-1.1,1.7-1.6,2.3-2.3,2.3c-0.7,0-1.4-0.5-1.4-1.1c0-0.2,0.1-0.5,0.4-0.7
				c1.3-1.3,2.3-3.4,2.7-4.9c0.1-0.4,0.5-0.6,1-0.6c0.7,0,1.5,0.4,1.5,1.1c0,0.1,0,0.4-0.6,1.7h5.9c0.8,0,1.1,0.6,1.1,1.1
				s-0.4,1.1-1.1,1.1H160c0,0.8-0.1,2.1-0.1,2.9h4.5c0.7,0,1.1,0.6,1.1,1.1C165.5,18.6,165.1,19.2,164.4,19.2L164.4,19.2z"/>
			<path class="st1" d="M189.9,26.4c-2.5,0.1-5.1,0.1-7.8,0.1s-5.3,0-7.8-0.1c-2.4-0.1-3.6-1.3-3.7-3.4c-0.1-2.1-0.1-4.7-0.1-7.4
				c0-3.2,0.1-6.6,0.1-9.4c0-1.8,1.4-3,3.5-3c2.4-0.1,5.1-0.1,7.8-0.1s5.5,0,8.1,0.1c1.7,0,3.4,1.2,3.4,3.2c0.1,2.9,0.1,6.1,0.1,9.2
				c0,2.6,0,5.1-0.1,7.2C193.3,24.9,191.9,26.3,189.9,26.4z M190.8,14.7c0-2.5,0-5-0.1-7.2c-0.1-1.6-0.6-1.9-2-1.9
				c-2.1,0-4.5-0.1-6.9-0.1c-2.4,0-4.7,0-6.6,0.1c-1.6,0-2,0.5-2.1,1.9c-0.1,2.3-0.1,4.9-0.1,7.4s0,5,0.1,7.1
				c0.1,1.6,0.6,1.9,2.4,1.9c1.9,0,4.1,0.1,6.3,0.1c2.2,0,4.5,0,6.8-0.1c1.6,0,2-0.8,2.1-2C190.7,19.7,190.8,17.2,190.8,14.7z
				 M180,19.7c-2.8,2.2-4.8,2.9-5.1,2.9c-0.7,0-1.1-0.6-1.1-1.2c0-0.3,0.2-0.7,0.6-0.8c1.7-0.6,3.3-1.3,5.1-2.6
				c-3.4,0-3.8-0.6-3.8-2.3c0-2.5,0.4-2.6,6.1-2.6c5.8,0,6,0.1,6,2.6c0,2.1-0.6,2.3-4.7,2.3c0.4,0.5,0.9,0.9,1.5,1.3
				c0.8-0.3,1.5-0.8,2.4-1.4c0.2-0.1,0.4-0.2,0.7-0.2c0.6,0,1.1,0.4,1.1,1c0,0.6-0.8,1.1-2.3,1.7c0.9,0.4,1.8,0.7,2.6,0.9
				c0.4,0.1,0.6,0.5,0.6,0.9c0,0.5-0.4,1.1-1.1,1.1c-1.1,0-4.5-1.6-6.4-3.7l0,3.1c0,0.5-0.6,0.8-1.1,0.8s-1.1-0.3-1.1-0.8
				c0,0,0,0,0,0L180,19.7z M174.7,12.3c-0.6,0-0.9-0.4-0.9-0.9c0-0.4,0.3-0.9,0.9-0.9h5.9V9.4h-4.5c-0.6,0-0.9-0.4-0.9-0.9
				c0-0.4,0.3-0.9,0.9-0.9h4.4V6.9c0-0.8,0.6-1.2,1.3-1.2c0.6,0,1.3,0.4,1.3,1.2v0.6h4.5c0.6,0,0.9,0.4,0.9,0.9
				c0,0.4-0.3,0.9-0.9,0.9h-4.5v1.1h5.9c0.6,0,0.9,0.4,0.9,0.9c0,0.4-0.3,0.9-0.9,0.9H174.7z M178,16c0,0.4,0.4,0.4,3.9,0.4
				c3.2,0,3.3-0.1,3.4-0.4c0-0.1,0-0.3,0-0.4c0-0.8-0.1-0.8-0.8-0.8c-0.9,0-2.2,0-3.4,0c-2.9,0-3.1,0.1-3.2,0.4
				C178,15.1,178,15.1,178,16z"/>
		</g>
		<g class="st0">
			<path class="st1" d="M4.4,43.6c0-1.3,0.1-3.8,0.1-6c0-1.5,0-2.9,0-3.8c0-0.3-0.1-0.3-1.1-0.3c-0.6,0-1.4,0-2.2,0
				c-0.6,0-1-0.5-1-0.9s0.3-0.9,0.9-0.9c0,0,0,0,0,0c1,0,2.8,0,4.6,0c1.4,0,2.9,0,3.9,0c0.7,0,0.9,0.5,0.9,0.9
				c0,0.5-0.3,0.9-0.8,0.9c0,0-0.1,0-0.1,0c-0.6,0-1.1,0-1.5,0c-1.7,0-1.7,0-1.7,0.3c0,1.2-0.1,2.8-0.1,4.5c0,2,0,4.1,0.1,5.4
				c0,0.6-0.5,0.9-1,0.9C4.9,44.5,4.4,44.2,4.4,43.6L4.4,43.6z"/>
			<path class="st1" d="M9.9,40.3c0-2.5,1.9-4.3,4.3-4.3c2.4,0,4.3,1.8,4.3,4.3c0,2.6-1.8,4.3-4.3,4.3C11.8,44.6,9.9,42.8,9.9,40.3z
				 M16.8,40.3c0-1.7-1.2-2.7-2.5-2.7c-1.4,0-2.6,1.1-2.6,2.7c0,1.7,1.2,2.7,2.6,2.7C15.6,43,16.8,41.9,16.8,40.3z"/>
			<path class="st1" d="M27,44.5c-0.2,0-0.5-0.1-0.7-0.3c-0.5-0.5-2.5-2.7-3.2-3.6c-0.1-0.1-0.2-0.1-0.3-0.1c-0.4,0-0.4,0.1-0.4,1.2
				c0,0.4,0,0.9,0.1,1.9c0,0.4-0.2,0.9-0.9,0.9c-0.5,0-0.9-0.3-0.9-0.8c0,0,0,0,0,0c0.1-1.8,0.1-4.3,0.1-6.6c0-1.9,0-3.6-0.1-4.7
				c0-0.5,0.4-0.8,0.9-0.8c0.4,0,0.9,0.2,0.9,0.8c0,0,0,0,0,0c-0.1,1.9-0.1,6.3-0.1,6.3c0,0.2,0.2,0.2,0.3,0.2
				c0.3,0,0.3-0.1,3.5-2.6c0.2-0.1,0.4-0.2,0.5-0.2c0.5,0,0.9,0.5,0.9,1c0,0.3-0.1,0.5-0.3,0.7c-1,0.7-1.8,1.2-2.7,1.8
				c-0.1,0.1-0.2,0.1-0.2,0.2c0,0.1,0.1,0.1,0.1,0.2c0.9,0.9,2.6,2.4,3,2.9c0.2,0.2,0.3,0.5,0.3,0.7C28,44,27.5,44.5,27,44.5z"/>
			<path class="st1" d="M29.3,48.7c-0.5,0-0.8-0.5-0.8-0.9c0-0.4,0.2-0.8,0.8-0.9c1.1-0.1,1.6-0.8,2.4-2.5c0-0.1,0-0.2,0-0.3
				c0-0.1,0-0.3-0.1-0.4c-0.5-1.3-2.2-5.4-2.6-6.5c-0.1-0.1-0.1-0.3-0.1-0.4c0-0.5,0.5-0.9,0.9-0.9c0.3,0,0.6,0.2,0.8,0.5
				c1.6,4.3,2,5.4,2.1,5.4c0.1,0,1.4-3.2,2.1-5.4c0.1-0.4,0.5-0.6,0.8-0.6c0.5,0,0.9,0.3,0.9,0.8c0,0.1,0,0.3-0.1,0.4
				c-0.8,2-2.3,5.5-3.3,7.9C32.2,47.5,31.3,48.7,29.3,48.7z"/>
			<path class="st1" d="M37.8,40.3c0-2.5,1.9-4.3,4.3-4.3c2.4,0,4.3,1.8,4.3,4.3c0,2.6-1.8,4.3-4.3,4.3
				C39.6,44.6,37.8,42.8,37.8,40.3z M44.6,40.3c0-1.7-1.2-2.7-2.5-2.7c-1.4,0-2.6,1.1-2.6,2.7c0,1.7,1.2,2.7,2.6,2.7
				C43.5,43,44.6,41.9,44.6,40.3z"/>
			<path class="st1" d="M56.7,44.6c-2.8,0-4.2-1.6-4.2-2.4c0-0.6,0.5-1,1-1c0.3,0,0.5,0.1,0.7,0.4c0.4,0.6,1.3,1.1,2.5,1.1
				c1.9,0,2.3-1.3,2.3-1.8c0-0.7-0.4-1.4-1.3-1.9c-0.7-0.4-1.7-0.9-2.6-1.3c-1.5-0.7-2.2-1.9-2.2-3.1c0-1.6,1.3-3.2,3.7-3.2
				s3.7,1.1,3.7,1.9c0,0.5-0.4,1-1,1c-0.3,0-0.5-0.1-0.8-0.4c-0.3-0.4-0.9-0.8-2-0.8c-1.1,0-1.8,0.7-1.8,1.4c0,0.5,0.3,1.1,1.1,1.5
				c0.7,0.4,1.9,0.9,2.7,1.3c1.7,0.9,2.4,2.2,2.4,3.5C61,42.7,59.5,44.6,56.7,44.6z"/>
			<path class="st1" d="M66.5,44.6c-2.3,0-4.1-1.8-4.1-4.3c0-2.6,1.8-4.4,4-4.4c2.3,0,3.7,1.7,3.7,3c0,0.8-0.5,1.4-1.6,1.5
				c-0.5,0-0.9,0-4.2,0c-0.1,0-0.1,0.1-0.1,0.3c0,1.4,1.1,2.3,2.3,2.3c1.1,0,1.7-0.5,2.2-1c0.2-0.2,0.4-0.3,0.6-0.3
				c0.5,0,0.9,0.4,0.9,0.9c0,0.2-0.1,0.4-0.3,0.6C69.1,44,68.2,44.6,66.5,44.6z M68.3,38.7c0-0.2-0.4-1.2-1.9-1.2
				c-1.4,0-2.1,1.2-2.1,1.5c0,0.2,0.2,0.2,1.8,0.2c0.7,0,1.5,0,1.9,0C68.2,39,68.3,38.9,68.3,38.7z"/>
			<path class="st1" d="M77.9,44.1c-0.2-0.1-0.3-0.3-0.5-0.6c0,0-0.1-0.1-0.1-0.1c0,0-0.1,0-0.1,0.1c-0.6,0.7-1.6,1-2.7,1
				c-1.9,0-3-1.4-3-2.7c0-0.9,0.5-1.7,1.6-2.1c1.2-0.4,2.6-0.7,2.9-0.7c0.2,0,0.3-0.2,0.3-0.6c0-0.2-0.1-1.1-1.2-1.1
				c-0.8,0-1.3,0.4-1.7,0.7c-0.2,0.2-0.4,0.3-0.6,0.3c-0.4,0-0.8-0.3-0.8-0.8c0-0.8,1.5-1.7,3.2-1.7c1.9,0,2.9,0.9,2.9,2.9
				c0,0.2,0,0.4,0,0.7c0,0.3-0.1,0.9-0.1,1.4c0,0.2,0,0.3,0,0.4c0.2,1.4,0.8,1.4,0.9,1.5c0.2,0.1,0.3,0.4,0.3,0.6c0,0.5-0.4,1-0.9,1
				C78.3,44.4,78.1,44.3,77.9,44.1z M76.4,40.5c-2.9,0.4-3,1.1-3,1.5c0,0.5,0.5,1.1,1.3,1.1c1.4,0,2-0.7,2-1.9
				C76.6,40.9,76.6,40.5,76.4,40.5L76.4,40.5z"/>
			<path class="st1" d="M86.1,32.6c0-0.7,0.5-1,1-1c0.5,0,1,0.3,1,1c0,0,0,0.1,0,0.1c-0.1,1.1-0.1,4.7-0.1,7c0,1,0,1.7,0,2
				c0.1,0.8,0.4,0.8,2.8,0.8c1,0,2.1,0,2.4,0c0,0,0.1,0,0.1,0c0.6,0,0.9,0.4,0.9,0.9s-0.3,0.9-1.1,1c-0.2,0-1.2,0-2.2,0
				c-1,0-2,0-2.2,0c-1.6-0.1-2.5-0.7-2.5-2.2c0-0.4,0-0.9,0-1.5c0-2.3,0.1-6.1,0.1-7.7C86.1,32.8,86.1,32.7,86.1,32.6L86.1,32.6z"/>
			<path class="st1" d="M95.8,32.7c0-0.8,0.7-1.2,1.2-1.2c0.6,0,1.2,0.5,1.2,1.2c0,0.6-0.5,1.2-1.2,1.2
				C96.3,33.9,95.8,33.4,95.8,32.7z M97,44.6c-0.5,0-0.9-0.3-0.9-0.9c0-1.4,0-3.3,0-4.9c0-0.8,0-1.4,0-1.9c0-0.6,0.4-0.9,0.9-0.9
				c0.4,0,0.9,0.3,0.9,0.8c0,0,0,0,0,0c0,0.7,0,2,0,3.5c0,1.2,0,2.4,0,3.3c0,0,0,0,0,0C97.9,44.3,97.4,44.6,97,44.6z"/>
			<path class="st1" d="M103.4,37.8c-0.2,0-0.2,0-0.2,0.3c0,0,0,3.6,0,5c0,0.2,0,0.4,0,0.5c0,0.6-0.5,0.9-0.9,0.9
				c-0.4,0-0.8-0.3-0.8-0.8c0,0,0-0.1,0-0.1c0-0.3,0-1,0-1.8c0-1.6,0-3.7,0-3.7c0-0.2,0-0.3-0.3-0.3h-0.6c-0.5,0-0.8-0.4-0.8-0.8
				c0-0.4,0.3-0.8,0.8-0.8h0.6c0.2,0,0.3,0,0.3-0.2c0-0.2,0-0.4,0-0.8c0-3.3,2.6-3.5,3.1-3.5c0.6,0,1.1,0.2,1.1,0.8
				c0,0.4-0.3,0.9-0.8,0.9c0,0-0.1,0-0.1,0c0,0-0.1,0-0.1,0c-1.4,0-1.4,1.5-1.4,2c0,0.3,0,0.4,0,0.7c0,0.2,0.1,0.2,0.2,0.2h1.3
				c0.5,0,0.8,0.4,0.8,0.8c0,0.4-0.3,0.8-0.8,0.8H103.4z"/>
			<path class="st1" d="M110.6,44.6c-2.3,0-4.1-1.8-4.1-4.3c0-2.6,1.8-4.4,4-4.4c2.3,0,3.7,1.7,3.7,3c0,0.8-0.5,1.4-1.6,1.5
				c-0.5,0-0.9,0-4.2,0c-0.1,0-0.1,0.1-0.1,0.3c0,1.4,1.1,2.3,2.3,2.3c1.1,0,1.7-0.5,2.2-1c0.2-0.2,0.4-0.3,0.6-0.3
				c0.5,0,0.9,0.4,0.9,0.9c0,0.2-0.1,0.4-0.3,0.6C113.2,44,112.3,44.6,110.6,44.6z M112.4,38.7c0-0.2-0.4-1.2-1.9-1.2
				c-1.4,0-2.1,1.2-2.1,1.5c0,0.2,0.2,0.2,1.8,0.2c0.7,0,1.5,0,1.9,0C112.3,39,112.4,38.9,112.4,38.7z"/>
			<path class="st1" d="M122.2,44.4c-0.5,0-1-0.3-1-0.9c0,0,0,0,0-0.1c0.1-1.3,0.1-2.8,0.1-4.3c0-1.8,0-3.4,0-4.6
				c0-2.1,0-3.2,3.3-3.2c0.4,0,0.7,0,1,0c2.7,0.2,3.9,2,3.9,3.8c0,1.9-1.3,3.8-3.7,4c-0.4,0.1-0.8,0.1-1.2,0.1c-0.4,0-0.8,0-1.2-0.1
				c-0.1,0-0.1,0-0.1,0c-0.1,0-0.1,0.1-0.1,0.2c0,1.1,0.1,2.3,0.1,3.4c0,0.2,0,0.4,0,0.7C123.2,44.2,122.7,44.4,122.2,44.4z
				 M124.6,33.2c-1.4,0-1.5,0.2-1.5,1.8c0,0.6,0,1.3,0,1.9c0,0.1,0,0.2,0,0.3c0,0.4,0.3,0.5,1.4,0.5c0.3,0,0.7,0,1-0.1
				c1.3-0.1,2.1-1.3,2.1-2.4c0-1-0.7-2-2.2-2C125.5,33.2,125,33.2,124.6,33.2z"/>
			<path class="st1" d="M136.7,44.1c-0.2-0.1-0.3-0.3-0.5-0.6c0,0-0.1-0.1-0.1-0.1c0,0-0.1,0-0.1,0.1c-0.6,0.7-1.6,1-2.7,1
				c-1.9,0-3-1.4-3-2.7c0-0.9,0.5-1.7,1.6-2.1c1.2-0.4,2.6-0.7,2.9-0.7c0.2,0,0.3-0.2,0.3-0.6c0-0.2-0.1-1.1-1.2-1.1
				c-0.8,0-1.3,0.4-1.7,0.7c-0.2,0.2-0.4,0.3-0.6,0.3c-0.4,0-0.8-0.3-0.8-0.8c0-0.8,1.5-1.7,3.2-1.7c1.9,0,2.9,0.9,2.9,2.9
				c0,0.2,0,0.4,0,0.7c0,0.3-0.1,0.9-0.1,1.4c0,0.2,0,0.3,0,0.4c0.2,1.4,0.8,1.4,0.9,1.5c0.2,0.1,0.3,0.4,0.3,0.6c0,0.5-0.4,1-0.9,1
				C137.2,44.4,136.9,44.3,136.7,44.1z M135.2,40.5c-2.9,0.4-3,1.1-3,1.5c0,0.5,0.5,1.1,1.3,1.1c1.4,0,2-0.7,2-1.9
				C135.4,40.9,135.4,40.5,135.2,40.5L135.2,40.5z"/>
			<path class="st1" d="M139.9,43.7C139.9,43.6,139.9,43.6,139.9,43.7c0.1-1.6,0.1-2.8,0.1-3.8c0-1,0-1.9-0.1-3c0,0,0,0,0,0
				c0-0.5,0.5-0.8,0.9-0.8s0.9,0.3,0.9,0.8c0,0.1,0,0.1,0,0.2c0,0,0,0.1,0,0.1c0,0,0,0.1,0,0.1c0,0,0,0,0.1-0.1c0.7-0.7,1.6-1,2.2-1
				c0.5,0,0.8,0.4,0.8,0.8s-0.3,0.9-1,0.9c-1,0.1-2.1,0.9-2.2,2c0,0.3,0,0.7,0,1.1c0,0.7,0,1.5,0.1,2.7c0,0.4-0.2,0.9-0.9,0.9
				C140.4,44.5,139.9,44.2,139.9,43.7z"/>
			<path class="st1" d="M152.8,44.5c-0.2,0-0.5-0.1-0.7-0.3c-0.5-0.5-2.5-2.7-3.2-3.6c-0.1-0.1-0.2-0.1-0.3-0.1
				c-0.4,0-0.4,0.1-0.4,1.2c0,0.4,0,0.9,0.1,1.9c0,0.4-0.2,0.9-0.9,0.9c-0.5,0-0.9-0.3-0.9-0.8c0,0,0,0,0,0c0.1-1.8,0.1-4.3,0.1-6.6
				c0-1.9,0-3.6-0.1-4.7c0-0.5,0.4-0.8,0.9-0.8c0.4,0,0.9,0.2,0.9,0.8c0,0,0,0,0,0c-0.1,1.9-0.1,6.3-0.1,6.3c0,0.2,0.2,0.2,0.3,0.2
				c0.3,0,0.3-0.1,3.5-2.6c0.2-0.1,0.4-0.2,0.5-0.2c0.5,0,0.9,0.5,0.9,1c0,0.3-0.1,0.5-0.3,0.7c-1,0.7-1.8,1.2-2.7,1.8
				c-0.1,0.1-0.2,0.1-0.2,0.2c0,0.1,0.1,0.1,0.1,0.2c0.9,0.9,2.6,2.4,3,2.9c0.2,0.2,0.3,0.5,0.3,0.7C153.8,44,153.4,44.5,152.8,44.5
				z"/>
		</g>
	</g>
	<g id="グループ_274" transform="translate(115 21.832)">
		<path id="パス_229" class="st1" d="M28.6,43.6c-2.1,0-3.4-0.1-3.6-0.1c-0.7,0-1.2-0.6-1.1-1.3l0,0c0.1-0.7,0.7-1.2,1.3-1.1
			c0.1,0,14.3,1.1,26.6-4.2c10.6-4.6,18-12.4,18.7-15.9c0.1-0.3,0.1-0.7-0.2-1c-0.1-0.1-0.3-0.2-0.5-0.3c-0.6,0.1-1.8,1.7-2.4,2.7
			c-1.2,1.7-2.3,3.4-4,3.4c-1.5,0.2-2.9-0.9-3.1-2.5c0-0.1,0-0.3,0-0.4v-0.3c-1.1,2.6-2.8,4.4-5.5,4.4c-2.3,0.1-4.3-1.6-4.5-3.9
			V10.5c0-5-8.5-8.1-16.3-8.1c-10.1,0-20,9.6-20.1,9.7c-0.5,0.5-1.3,0.5-1.8,0s-0.5-1.3,0-1.7C12.5,10,22.8,0,33.9,0
			c4.7-0.1,9.3,0.9,13.4,3c3.4,1.9,5.4,4.7,5.4,7.5v12.2c0.1,1,1,1.7,2,1.7c2.9,0,3.9-4.2,5.2-11c0.3-1.5,0.6-3.1,1-4.7
			c0.2-0.7,0.8-1.1,1.5-0.9c0.6,0.1,1,0.7,1,1.3c-0.2,4.3-0.6,12.7-0.6,13.8c0,0.3,0,0.4,0.6,0.4c0.8-0.7,1.4-1.4,1.9-2.3
			c1.2-1.8,2.5-3.6,4.3-3.8c0.9-0.1,1.8,0.3,2.5,0.9c0.8,0.8,1.2,2.1,0.9,3.2c-0.9,4.7-9.1,13-20.1,17.7
			C43.6,43,33.7,43.6,28.6,43.6z"/>
		<path id="パス_230" class="st1" d="M1.7,26.7c-0.2,0-0.3,0-0.5-0.1c-0.6-0.3-0.9-1-0.7-1.6l0,0c1.2-2.5,2.9-4.8,4.8-6.8
			c4.5-4.6,10.4-7.6,16.8-8.3c15.9-2.1,21.6,2.1,26.5,7c0.5,0.5,0.5,1.3,0,1.8s-1.3,0.5-1.8,0l0,0c-4.7-4.7-9.7-8.3-24.5-6.3
			C14,13.3,6.7,18.4,2.8,26C2.6,26.4,2.1,26.7,1.7,26.7z"/>
		<path id="パス_231" class="st1" d="M8.5,30.6c-0.3,0-0.6-0.1-0.8-0.3C5.5,28.4,1.5,29,1.5,29c-0.7,0.1-1.3-0.4-1.4-1
			s0.4-1.3,1-1.4l0,0c0.2,0,5.1-0.8,8.2,1.9c0.5,0.5,0.6,1.2,0.1,1.8C9.2,30.4,8.8,30.5,8.5,30.6z"/>
		<g id="グループ_163" transform="translate(13.018 18.321)">
			<path id="パス_232" class="st1" d="M1.3,15.2c-0.7,0-1.3-0.6-1.3-1.3c0-0.4,0.2-0.9,0.6-1.1C2.9,11.6,5.7,9,6,8.2
				c-0.1-0.9-2.7-3.7-5.5-6C-0.1,1.8-0.2,1,0.3,0.5S1.5-0.2,2,0.3c2,1.5,6.5,5.4,6.5,7.9c0,0.7-0.3,1.7-2.6,3.8
				c-1.2,1.1-2.6,2.1-4,3C1.7,15.2,1.5,15.2,1.3,15.2z"/>
			<path id="パス_233" class="st1" d="M4,13.3c-0.4,0-0.7-0.2-1-0.4c-0.5-0.5-0.4-1.3,0.1-1.8c1-0.6,1.6-1.7,1.6-2.8
				C4.6,6.8,3.9,5.4,2.9,4.4C2.4,3.9,2.3,3.1,2.7,2.6S3.9,2,4.4,2.4l0,0C6.1,4,7.1,6.1,7.3,8.3c0,1.9-0.9,3.6-2.5,4.7
				C4.6,13.2,4.3,13.3,4,13.3z"/>
		</g>
		<path id="パス_234" class="st1" d="M9.2,26.2C8,26.2,7,25.2,7,24s1-2.2,2.2-2.2s2.2,1,2.2,2.2S10.4,26.2,9.2,26.2L9.2,26.2z
			 M9.2,23.2c-0.5,0-0.8,0.4-0.8,0.8s0.4,0.8,0.8,0.8c0.5,0,0.8-0.4,0.8-0.8l0,0C10,23.6,9.6,23.2,9.2,23.2L9.2,23.2L9.2,23.2z"/>
		<g id="グループ_164" transform="translate(1.087 29.225)">
			<path id="パス_235" class="st1" d="M25.7,12.2c-0.9,0-14.6-0.1-23.9-8.2c0,0-0.1-0.1-0.2-0.2C0.8,3.2,0,2.5,0,1.6
				c0-0.4,0.1-0.8,0.5-1.1c1.3-1.2,4.2,0.2,4.3,0.3C5.5,1.1,6.3,1.6,7,2.1c0.6,0.4,0.7,1.2,0.3,1.8C7.2,4.1,6.9,4.3,6.6,4.4
				c8.4,5.3,19,5.3,19.2,5.3l0,0c0.7,0,1.2,0.6,1.3,1.3C27,11.6,26.5,12.2,25.7,12.2C25.8,12.2,25.8,12.2,25.7,12.2
				C25.8,12.2,25.8,12.2,25.7,12.2z"/>
			
				<ellipse id="楕円形_48" transform="matrix(0.5891 -0.8081 0.8081 0.5891 -0.742 4.9403)" class="st1" cx="4.5" cy="3.2" rx="0.8" ry="2"/>
		</g>
	</g>
</g>
</svg>
