<?xml version="1.0" encoding="utf-8"?>
<!-- Generator: Adobe Illustrator 26.5.0, SVG Export Plug-In . SVG Version: 6.00 Build 0)  -->
<svg version="1.1" id="レイヤー_1" xmlns="http://www.w3.org/2000/svg" xmlns:xlink="http://www.w3.org/1999/xlink" x="0px"
	 y="0px" viewBox="0 0 439 439" style="enable-background:new 0 0 439 439;" xml:space="preserve">
<style type="text/css">
	.st0{fill:#171C61;}
	.st1{fill:#FFFFFF;}
</style>
<g id="グループ_370" transform="translate(0.234)">
	<circle id="楕円形_59" class="st0" cx="219.3" cy="219.5" r="216.4"/>
	<g id="グループ_274" transform="translate(40.375 90.918)">
		<path id="パス_229" class="st1" d="M154.6,213.7c-8.3,0-13.5-0.4-14.1-0.4c-2.6-0.2-4.6-2.4-4.5-5.1c0,0,0-0.1,0-0.1
			c0.3-2.7,2.6-4.6,5.3-4.4c0.5,0,56,4.2,103.9-16.6c41.5-18,70.5-48.3,73-62.2c0.4-1.9,0.1-3.3-0.6-4c-0.5-0.5-1.1-0.9-1.8-1.1
			c-2.4,0.3-6.9,6.7-9.5,10.6c-4.6,6.8-9.1,13.3-15.5,13.3c-7.5,0-12.2-4.3-12.2-11.3v-1.3c-4.4,10.3-10.8,17.2-21.6,17.2
			c-12.7,0-17-10-17.7-15.3V84.2c0-19.5-33.1-31.6-63.8-31.6c-39.3,0-78.2,37.5-78.6,37.8c-2,1.8-5,1.8-7,0c-1.9-1.9-1.9-4.9,0-6.8
			C91.8,82,132.2,43,175.6,43c20.4,0,39.1,4.2,52.5,11.8c13.4,7.6,21,18.3,21,29.3v47.9c0.3,1.8,1.6,6.5,7.8,6.5
			c11.5,0,15.4-16.3,20.5-43.1c1.2-6,2.3-12.3,3.7-18.4c0.6-2.6,3.3-4.3,5.9-3.7c2.3,0.5,3.9,2.6,3.8,4.9
			c-0.9,16.7-2.5,49.5-2.5,53.9c0,1.2,0,1.7,2.2,1.7c1.7-0.6,5.4-5.9,7.5-9c4.7-6.9,9.6-14.1,16.7-14.8c2.3-0.3,6,0.2,9.6,3.7
			c2.2,2.1,4.6,6,3.5,12.6c-3.4,18.5-35.8,50.7-78.7,69.4C213.5,211.3,174.9,213.7,154.6,213.7z"/>
		<path id="パス_230" class="st1" d="M49.5,147.6c-0.7,0-1.4-0.1-2-0.4c-2.5-1-3.6-3.9-2.6-6.4c0,0,0,0,0,0
			c0.3-0.5,5.7-13.1,18.9-26.7c17.6-18,40.8-29.5,65.7-32.6c62.1-8.4,84.6,8.3,103.8,27.6c1.9,1.9,1.9,5,0,7s-5,1.9-7,0
			c-18.2-18.2-37.9-32.6-95.6-24.8c-56.5,7.6-76.8,53.1-77,53.5C53.1,146.4,51.4,147.6,49.5,147.6z"/>
		<path id="パス_231" class="st1" d="M76.2,162.5c-1.2,0-2.3-0.4-3.2-1.2c-8.7-7.4-24.1-5.2-24.3-5.2c-2.7,0.4-5.2-1.5-5.6-4.2
			c-0.4-2.7,1.4-5.1,4.1-5.6c0.8-0.1,20-3,32.2,7.4c2.1,1.8,2.3,4.9,0.5,7C79,161.8,77.6,162.5,76.2,162.5z"/>
		<g id="グループ_163" transform="translate(50.903 71.644)">
			<path id="パス_232" class="st1" d="M48,102.5c-2.7,0-4.9-2.2-4.9-4.9c0-1.7,0.9-3.4,2.4-4.2c8.7-5.1,19.8-15.1,21-18.4
				C66,71.4,55.9,60.5,44.9,51.7c-2.1-1.7-2.5-4.7-0.8-6.9c1.7-2.1,4.7-2.5,6.9-0.8c7.6,6.1,25.2,21.1,25.2,31
				c0,2.7-1.2,6.8-10.2,15c-4.8,4.4-10.1,8.3-15.7,11.7C49.6,102.3,48.8,102.5,48,102.5z"/>
			<path id="パス_233" class="st1" d="M58.7,95c-1.4,0-2.8-0.6-3.7-1.7c-1.8-2.1-1.5-5.2,0.5-7c3.4-2.9,6.2-5.7,6.2-11
				c0-5.6-5.3-13.6-7.4-15.3c-2.1-1.7-2.4-4.8-0.7-6.9c1.7-2.1,4.8-2.4,6.9-0.7l0,0c3.8,3.1,11,13.7,11,22.9
				c0,10.2-6.3,15.6-9.6,18.5C60.9,94.6,59.8,95,58.7,95z"/>
		</g>
		<path id="パス_234" class="st1" d="M78.8,145.5c-4.7,0-8.6-3.8-8.6-8.6s3.8-8.6,8.6-8.6c4.7,0,8.6,3.8,8.6,8.6l0,0
			C87.4,141.7,83.6,145.5,78.8,145.5z M78.8,133.7c-1.8,0-3.2,1.4-3.2,3.2s1.4,3.2,3.2,3.2c1.8,0,3.2-1.4,3.2-3.2l0,0
			C82,135.2,80.6,133.7,78.8,133.7C78.8,133.7,78.8,133.7,78.8,133.7L78.8,133.7z"/>
		<g id="グループ_164" transform="translate(4.249 114.282)">
			<path id="パス_235" class="st1" d="M143.6,90.8c-3.5,0-57.1-0.5-93.4-32c-0.2-0.2-0.4-0.4-0.7-0.6c-3.5-2.9-6.4-5.4-6.5-8.8
				c-0.1-1.7,0.6-3.3,1.8-4.5c4.9-4.7,16.3,0.8,16.8,1c3.1,1.6,6.1,3.3,8.9,5.4c2.2,1.6,2.8,4.6,1.2,6.9c-0.7,1-1.8,1.8-3,2
				c33,20.6,74.4,20.9,75.1,20.9l0,0c2.7,0,4.9,2.2,4.9,4.9c0,2.7-2.2,4.9-4.9,4.9c0,0,0,0,0,0C143.7,90.8,143.7,90.8,143.6,90.8z"
				/>
			
				<ellipse id="楕円形_48" transform="matrix(0.5891 -0.8081 0.8081 0.5891 -20.0112 71.778)" class="st1" cx="60.6" cy="55.6" rx="2.9" ry="7.9"/>
		</g>
	</g>
</g>
</svg>
